<?xml version="1.0" encoding="UTF-8"?>
<svg width="164.9" height="265.87" version="1.0" viewBox="0 0 164.9024 265.87006" xmlns="http://www.w3.org/2000/svg" xmlns:cc="http://creativecommons.org/ns#" xmlns:dc="http://purl.org/dc/elements/1.1/" xmlns:rdf="http://www.w3.org/1999/02/22-rdf-syntax-ns#">
<metadata>
<rdf:RDF>
<cc:Work rdf:about="">
<dc:format>image/svg+xml</dc:format>
<dc:type rdf:resource="http://purl.org/dc/dcmitype/StillImage"/>
<dc:title/>
</cc:Work>
</rdf:RDF>
</metadata>
<g transform="matrix(1.0033 0 0 1.0012 14.413 .052135)">
<g transform="matrix(0 .15063 -.15063 0 152.65 129.88)" stroke="#fff">
<path transform="scale(-1,1)" d="m-899.03 355.47a336.19 336.07 0 0 1 336.19 -336.07" fill="none" stroke-width="2.6667"/>
<g transform="translate(5.2e-4,-4.57e-4)">
<g transform="translate(-5.4e-4)" fill="none" stroke="#fff" stroke-width="2.6667">
<path d="m18.898 563.15a543.94 543.75 0 0 1 543.94 -543.75"/>
<path transform="matrix(0,-1,-1,0,0,0)" d="m-563.15-691.27a207.68 207.76 0 0 1 207.68 -207.76"/>
<path transform="scale(1,-1)" d="m562.84-434.76a128.43 128.39 0 0 1 128.43 -128.39"/>
<path d="m562.84 434.76a79.325 79.297 0 0 1 79.325 -79.297"/>
<path transform="scale(-1,1)" d="m-691.27 404.55a49.105 49.088 0 0 1 49.105 -49.088"/>
<path transform="scale(-1)" d="m-691.27-404.55a30.219 30.208 0 0 1 30.219 -30.208"/>
<path transform="scale(1,-1)" d="m642.17-415.88a18.886 18.88 0 0 1 18.886 -18.88"/>
<path d="m642.17 415.88a11.332 11.328 0 0 1 11.332 -11.328"/>
<path d="m653.5 415.88v-11.328"/>
<path d="m661.05 415.88h-18.887"/>
<path d="m653.5 412.11h7.5548"/>
<path d="m657.28 412.11v3.7761"/>
<path d="m661.05 404.55v30.208"/>
<path d="m642.17 404.55h49.106"/>
<path d="m642.17 434.76v-79.297"/>
<path d="m691.27 434.76h-128.43"/>
<path d="m691.27 355.47v207.68"/>
<path d="m562.84 355.28h336.38"/>
<path d="m562.84 563.15v-543.75"/>
<path d="m18.898 563.15v-544.25"/>
<path d="m899.03 562.65v-543.75"/>
<path d="m18.898 18.897h880.63"/>
<path d="m18.898 563.15h880.63"/>
<path transform="scale(-1,1)" d="m-661.05 412.11a7.5543 7.5516 0 0 1 7.5543 -7.5516"/>
<path transform="scale(-1)" d="m-661.05-412.11a3.7769 3.7756 0 0 1 3.7769 -3.7756"/>
<path transform="scale(1,-1)" d="m653.51-412.1a3.7769 3.7756 0 0 1 3.7769 -3.7756"/>
</g>
</g>
</g>
</g>
<g transform="matrix(0 -.15081 .15112 0 -2.6542 135.79)" stroke="#fff">
<path transform="scale(-1,1)" d="m-899.03 355.47a336.19 336.07 0 0 1 336.19 -336.07" fill="none" stroke-width="2.6667"/>
<g transform="translate(5.2e-4,-4.57e-4)">
<g transform="translate(-5.4e-4)" fill="none" stroke="#fff" stroke-width="2.6667">
<path d="m18.898 563.15a543.94 543.75 0 0 1 543.94 -543.75"/>
<path transform="matrix(0,-1,-1,0,0,0)" d="m-563.15-691.27a207.68 207.76 0 0 1 207.68 -207.76"/>
<path transform="scale(1,-1)" d="m562.84-434.76a128.43 128.39 0 0 1 128.43 -128.39"/>
<path d="m562.84 434.76a79.325 79.297 0 0 1 79.325 -79.297"/>
<path transform="scale(-1,1)" d="m-691.27 404.55a49.105 49.088 0 0 1 49.105 -49.088"/>
<path transform="scale(-1)" d="m-691.27-404.55a30.219 30.208 0 0 1 30.219 -30.208"/>
<path transform="scale(1,-1)" d="m642.17-415.88a18.886 18.88 0 0 1 18.886 -18.88"/>
<path d="m642.17 415.88a11.332 11.328 0 0 1 11.332 -11.328"/>
<path d="m653.5 415.88v-11.328"/>
<path d="m661.05 415.88h-18.887"/>
<path d="m653.5 412.11h7.5548"/>
<path d="m657.28 412.11v3.7761"/>
<path d="m661.05 404.55v30.208"/>
<path d="m642.17 404.55h49.106"/>
<path d="m642.17 434.76v-79.297"/>
<path d="m691.27 434.76h-128.43"/>
<path d="m691.27 355.47v207.68"/>
<path d="m562.84 355.28h336.38"/>
<path d="m562.84 563.15v-543.75"/>
<path d="m18.898 563.15v-544.25"/>
<path d="m899.03 562.65v-543.75"/>
<path d="m18.898 18.897h880.63"/>
<path d="m18.898 563.15h880.63"/>
<path transform="scale(-1,1)" d="m-661.05 412.11a7.5543 7.5516 0 0 1 7.5543 -7.5516"/>
<path transform="scale(-1)" d="m-661.05-412.11a3.7769 3.7756 0 0 1 3.7769 -3.7756"/>
<path transform="scale(1,-1)" d="m653.51-412.1a3.7769 3.7756 0 0 1 3.7769 -3.7756"/>
</g>
</g>
</g>
</svg>
