<?xml version="1.0" encoding="UTF-8" standalone="no"?>
<svg
   xmlns:dc="http://purl.org/dc/elements/1.1/"
   xmlns:cc="http://creativecommons.org/ns#"
   xmlns:rdf="http://www.w3.org/1999/02/22-rdf-syntax-ns#"
   xmlns:svg="http://www.w3.org/2000/svg"
   xmlns="http://www.w3.org/2000/svg"
   xmlns:sodipodi="http://sodipodi.sourceforge.net/DTD/sodipodi-0.dtd"
   xmlns:inkscape="http://www.inkscape.org/namespaces/inkscape"
   version="1.0"
   width="85.733513"
   height="100"
   id="svg1473"
   sodipodi:docname="Inkscape.logo.svg"
   inkscape:version="1.0.1 (3bc2e813f5, 2020-09-07)">
  <metadata
     id="metadata1479">
    <rdf:RDF>
      <cc:Work
         rdf:about="">
        <dc:format>image/svg+xml</dc:format>
        <dc:type
           rdf:resource="http://purl.org/dc/dcmitype/StillImage" />
        <dc:title />
      </cc:Work>
    </rdf:RDF>
  </metadata>
  <defs
     id="defs1477">
    <rect
       x="0"
       y="407.85541"
       width="392.81927"
       height="165.39758"
       id="rect880" />
  </defs>
  <sodipodi:namedview
     pagecolor="#00ff00"
     bordercolor="#666666"
     borderopacity="1"
     objecttolerance="10"
     gridtolerance="10"
     guidetolerance="10"
     inkscape:pageopacity="0"
     inkscape:pageshadow="2"
     inkscape:window-width="1920"
     inkscape:window-height="1001"
     id="namedview1475"
     showgrid="false"
     inkscape:zoom="4"
     inkscape:cx="27.046707"
     inkscape:cy="52.954049"
     inkscape:window-x="-9"
     inkscape:window-y="-9"
     inkscape:window-maximized="1"
     inkscape:current-layer="svg1473"
     inkscape:document-rotation="0"
     lock-margins="true"
     fit-margin-top="10"
     fit-margin-left="10"
     fit-margin-right="10"
     fit-margin-bottom="10" />
  <path
     id="rect842"
     style="fill:#ffffff;stroke:#ffffff;stroke-width:0.5;stroke-miterlimit:4;stroke-dasharray:none"
     d="m 9.9140605,0.25 a 9.75,9.75 0 0 0 -0.26367,0.005859 9.75,9.75 0 0 0 -0.52344,0.0332031 9.75,9.75 0 0 0 -0.26172,0.0273438 9.75,9.75 0 0 0 -1.0332,0.17773437 9.75,9.75 0 0 0 -0.50976,0.13085938 9.75,9.75 0 0 0 -0.3125,0.0957031 9.75,9.75 0 0 0 -0.36915,0.12695313 9.75,9.75 0 0 0 -0.0664,0.0234375 9.75,9.75 0 0 0 -1.64844,0.80273435 9.75,9.75 0 0 0 -0.00195,0.00195 9.75,9.75 0 0 0 -0.22071,0.1386719 9.75,9.75 0 0 0 -0.43359,0.296875 9.75,9.75 0 0 0 -0.20898,0.15625 9.75,9.75 0 0 0 -0.00196,0.00195 9.75,9.75 0 0 0 -0.79492,0.6816407 9.75,9.75 0 0 0 -0.00195,0.00195 9.75,9.75 0 0 0 -0.18555,0.1816406 9.75,9.75 0 0 0 -0.00781,0.00781 9.75,9.75 0 0 0 -0.17578,0.1816407 9.75,9.75 0 0 0 0,0.00195 9.75,9.75 0 0 0 -0.17578,0.1914062 9.75,9.75 0 0 0 -0.00196,0.00195 9.75,9.75 0 0 0 -0.33789,0.4003907 9.75,9.75 0 0 0 -0.16015,0.2070312 9.75,9.75 0 0 0 0,0.00195 9.75,9.75 0 0 0 -0.71875,1.0957032 9.75,9.75 0 0 0 0,0.00195 9.75,9.75 0 0 0 -0.125,0.2285156 9.75,9.75 0 0 0 0,0.00195 9.75,9.75 0 0 0 -0.11914,0.2324219 9.75,9.75 0 0 0 0,0.00195 9.75,9.75 0 0 0 -0.41210997,0.9628907 9.75,9.75 0 0 0 0,0.00195 9.75,9.75 0 0 0 -0.08789,0.2460938 9.75,9.75 0 0 0 0,0.00195 9.75,9.75 0 0 0 -0.08008,0.2480469 9.75,9.75 0 0 0 0,0.00195 9.75,9.75 0 0 0 -0.19922,0.7597656 9.75,9.75 0 0 0 0,0.00195 9.75,9.75 0 0 0 -0.05273,0.2558594 9.75,9.75 0 0 0 0,0.00195 9.75,9.75 0 0 0 -0.16797,1.5625 9.75,9.75 0 0 0 0,0.00195 A 9.75,9.75 0 0 0 0.25000053,10 a 9.75,9.75 0 0 0 0.00391,0.25 h -0.00391 V 26.162109 28.105469 72.25 83.439453 90.105469 h 0.00391 a 9.75,9.75 0 0 0 -0.00391,0.25 9.75,9.75 0 0 0 0.00391,0.261719 9.75,9.75 0 0 0 0,0.002 9.75,9.75 0 0 0 0.08398,1.044921 9.75,9.75 0 0 0 0,0.002 9.75,9.75 0 0 0 0.08399,0.515625 9.75,9.75 0 0 0 0,0.002 9.75,9.75 0 0 0 0.05273,0.255859 9.75,9.75 0 0 0 0,0.002 9.75,9.75 0 0 0 0.12695,0.507813 9.75,9.75 0 0 0 0,0.002 9.75,9.75 0 0 0 0.07227,0.25 9.75,9.75 0 0 0 0,0.002 9.75,9.75 0 0 0 0.08008,0.248047 9.75,9.75 0 0 0 0,0.002 9.75,9.75 0 0 0 0.08789,0.246094 9.75,9.75 0 0 0 0,0.002 9.75,9.75 0 0 0 0.19335997,0.486328 9.75,9.75 0 0 0 0,0.002 9.75,9.75 0 0 0 0.21875,0.474609 9.75,9.75 0 0 0 0,0.002 9.75,9.75 0 0 0 0.11914,0.232422 9.75,9.75 0 0 0 0,0.002 9.75,9.75 0 0 0 0.125,0.228515 9.75,9.75 0 0 0 0,0.002 9.75,9.75 0 0 0 0.8789,1.304688 9.75,9.75 0 0 0 0.33789,0.400391 9.75,9.75 0 0 0 0.00196,0.002 9.75,9.75 0 0 0 0.54492,0.564453 9.75,9.75 0 0 0 0.00195,0.002 9.75,9.75 0 0 0 0.79492,0.681641 9.75,9.75 0 0 0 0.00196,0.002 9.75,9.75 0 0 0 0.20898,0.15625 9.75,9.75 0 0 0 0.43359,0.296875 9.75,9.75 0 0 0 0.22071,0.140625 9.75,9.75 0 0 0 0.00195,0 9.75,9.75 0 0 0 0.45508,0.259765 9.75,9.75 0 0 0 0.46875,0.236328 9.75,9.75 0 0 0 0.72461,0.306641 9.75,9.75 0 0 0 0.00195,0 9.75,9.75 0 0 0 0.49414,0.171875 9.75,9.75 0 0 0 0.00196,0 9.75,9.75 0 0 0 0.25,0.07422 9.75,9.75 0 0 0 0.50976,0.130859 9.75,9.75 0 0 0 0.51367,0.103516 9.75,9.75 0 0 0 0.00196,0 9.75,9.75 0 0 0 0.51757,0.07422 9.75,9.75 0 0 0 0.00196,0 9.75,9.75 0 0 0 0.7832,0.0605 9.75,9.75 0 0 0 0.00195,0 9.75,9.75 0 0 0 0.26172,0.006 9.75,9.75 0 0 0 0.08594,0 9.75,9.75 0 0 0 0.25,-0.004 v 0.004 h 17.85547 29.52539 3.35742 14.49805 v -0.004 a 9.75,9.75 0 0 0 0.25,0.004 9.75,9.75 0 0 0 0.08594,0 9.75,9.75 0 0 0 4.06445,-0.927736 9.75,9.75 0 0 0 0.46875,-0.236328 9.75,9.75 0 0 0 1.32031,-0.853515 9.75,9.75 0 0 0 0.0019,0 9.75,9.75 0 0 0 0.79493,-0.683594 9.75,9.75 0 0 0 0.0019,0 9.75,9.75 0 0 0 0.18359,-0.181641 9.75,9.75 0 0 0 0.002,-0.002 9.75,9.75 0 0 0 0.36132,-0.384765 9.75,9.75 0 0 0 0.3379,-0.400391 9.75,9.75 0 0 0 1.64843,-3.0625 9.75,9.75 0 0 0 0.12696,-0.423828 9.75,9.75 0 0 0 0.13476,-0.552735 9.75,9.75 0 0 0 0.08985,-0.472656 9.75,9.75 0 0 0 0.12695,-1.568359 9.75,9.75 0 0 0 -0.0039,-0.25 h 0.0039 V 72.25 28.105469 26.162109 10.25 h -0.0039 a 9.75,9.75 0 0 0 0.0039,-0.25 9.75,9.75 0 0 0 -1.38086,-5.0019531 9.75,9.75 0 0 0 -0.58594,-0.8710938 9.75,9.75 0 0 0 -0.16015,-0.2070312 9.75,9.75 0 0 0 -0.3379,-0.4003907 9.75,9.75 0 0 0 -0.17773,-0.1953124 9.75,9.75 0 0 0 -0.18359,-0.1875 9.75,9.75 0 0 0 -0.1836,-0.1816407 9.75,9.75 0 0 0 -1.00976,-0.84375 9.75,9.75 0 0 0 -0.4336,-0.296875 9.75,9.75 0 0 0 -1.87109,-0.94335935 9.75,9.75 0 0 0 -0.0019,0 9.75,9.75 0 0 0 -0.2461,-0.0898438 9.75,9.75 0 0 0 -0.25,-0.0820313 9.75,9.75 0 0 0 -1.79297,-0.3828125 9.75,9.75 0 0 0 -0.002,0 9.75,9.75 0 0 0 -0.7832,-0.0605469 9.75,9.75 0 0 0 -0.002,0 9.75,9.75 0 0 0 -0.26171,-0.005859 9.75,9.75 0 0 0 -0.08594,0 9.75,9.75 0 0 0 -0.25,0.003906 V 0.25 h -14.49805 -3.35742 -29.52539 -17.85547 v 0.003906 a 9.75,9.75 0 0 0 -0.25,-0.003906 9.75,9.75 0 0 0 -0.08594,0 z" />
  <g
     id="inkscape-logo"
     transform="matrix(0.17879692,0,0,0.17879692,7.7443724,7.2286643)"
     style="stroke-width:5.59294">
    <path
       d="M 163.15,27.83 28.81,165.3 C -16.58,221.51 59.7,214.97 92.4,231.16 104.13,243.15 47.44,252 59.17,264 c 11.73,11.99 70.93,23.1 82.68,35.09 11.73,11.99 -24.01,24.71 -12.28,36.7 11.73,11.99 38.86,0.63 43.94,28.31 3.62,19.78 48.89,8.5 71.03,-7.7 11.73,-12 -22.44,-10.87 -10.71,-22.86 29.17,-29.83 56.33,-10.84 66.31,-40.73 4.93,-14.77 -42.94,-22.77 -31.19,-34.76 33.75,-19.71 150.4,-32.54 95.05,-87.89 L 224.75,27.83 c -17.03,-16.35 -45.45,-16.53 -61.6,0 z m 154.31,264.98 c 0,6.82 50.25,11.29 50.25,-1.61 -7.16,-20.72 -44.31,-19.32 -50.25,1.61 z M 91.1,329.05 c 11.9,10.29 30.28,-2.56 35.79,-16.92 -11.53,-15.32 -54.69,0.55 -35.79,16.92 z m 220.06,-22.23 c -15.34,13.76 1.72,27.72 16.84,18.83 3.37,-3.42 -0.09,-15.41 -16.84,-18.83 z"
       id="path1466"
       style="stroke-width:5.59294" />
    <path
       fill="#ffffff"
       d="m 131,238.6 c 3.59,2.23 57.89,13.26 71.16,15.46 4.6,0.97 1.34,5.71 -5,8.91 -14.3,3.8 -83.66,-24.37 -66.16,-24.37 z"
       id="path1468"
       style="stroke-width:31.281" />
    <path
       fill="#ffffff"
       d="m 216.63,37.47 53.15,53.98 c 5.04,5.15 4.97,15.13 2.15,18 L 245.54,88.34 240.35,119.6 218.3,107.96 182.99,130.27 171.3,83.24 152.33,116.06 h -29 c -11.82,0 -13.21,-15 -2.47,-25.74 18.76,-20.25 40.29,-40.89 51.99,-52.85 11.76,-12.02 32.25,-11.68 43.78,0 z"
       id="path1470"
       style="stroke-width:31.281" />
  </g>
  <text
     xml:space="preserve"
     id="text878"
     style="font-style:normal;font-weight:normal;font-size:40px;line-height:1.25;font-family:sans-serif;white-space:pre;shape-inside:url(#rect880);fill:#000000;fill-opacity:1;stroke:none;stroke-width:5.59294;"
     x="168.55476"
     y="0"
     transform="matrix(0.17879692,0,0,0.17879692,41.882995,3.5312473)"><tspan
       x="8.3556938"
       y="481.531"><tspan
         style="font-style:normal;font-variant:normal;font-weight:normal;font-stretch:normal;font-size:66.6667px;font-family:'Copperplate Gothic Light';-inkscape-font-specification:'Copperplate Gothic Light, ';text-align:center;text-anchor:middle;stroke-width:5.59294">INKSCAPE</tspan></tspan></text>
</svg>
