<?xml version="1.0" encoding="UTF-8"?>
<svg version="1.0" width="303px" height="353px" viewBox="0 0 303.49 353.62" xmlns="http://www.w3.org/2000/svg" xmlns:cc="http://creativecommons.org/ns#" xmlns:dc="http://purl.org/dc/elements/1.1/" xmlns:rdf="http://www.w3.org/1999/02/22-rdf-syntax-ns#">
<metadata>
<rdf:RDF>
<cc:Work rdf:about="">
<dc:format>image/svg+xml</dc:format>
<dc:type rdf:resource="http://purl.org/dc/dcmitype/StillImage"/>
<dc:title/>
</cc:Work>
</rdf:RDF>
</metadata>
<path d="m303.33 221.92c-14.536 9.1343-23.761 26.075-23.613 43.234" fill="none" stroke="#595959" stroke-width="1.5"/>
<path d="m300.99 353.39c1.8537-58.633-51.657-112.54-110.36-110.72" fill="none" stroke="#595959" stroke-width="1.5"/>
<path d="m122.42 311.1c-1.1558-36.228 31.94-69.566 68.21-68.428" fill="none" stroke="#595959" stroke-width="1.5"/>
<path d="m164.57 353.39c-22.422 0.70715-42.865-19.909-42.152-42.287" fill="none" stroke="#595959" stroke-width="1.5"/>
<path d="m190.63 327.25c0.44348 13.838-12.204 26.577-26.058 26.141" fill="none" stroke="#595959" stroke-width="1.5"/>
<path d="m190.63 327.25c0.27167-8.5502-7.5338-16.412-16.095-16.146" fill="none" stroke="#595959" stroke-width="1.5"/>
<path d="m164.57 321.1c-0.16818-5.293 4.6638-10.16 9.9632-9.995" fill="none" stroke="#595959" stroke-width="1.5"/>
<path d="m164.57 321.1c-0.0965 3.2657 2.8599 6.2457 6.1312 6.1508" fill="none" stroke="#595959" stroke-width="1.5"/>
<path d="m174.54 323.41c0.0602 2.041-1.7874 3.9035-3.832 3.8442" fill="none" stroke="#595959" stroke-width="1.5"/>
<path d="m174.54 323.41c-0.76638-0.76882-1.5328-1.5376-2.2991-2.3065" fill="none" stroke="#595959" stroke-width="1.5"/>
<path d="m170.7 322.64c0.51091-0.51254 1.0218-1.0251 1.5327-1.5376" fill="none" stroke="#595959" stroke-width="1.5"/>
<path d="m170.7 322.64 0.76631 0.76876" fill="none" stroke="#595959" stroke-width="1.5"/>
<path d="m172.24 322.64-0.76631 0.76876" fill="none" stroke="#595959" stroke-width="1.5"/>
<path d="m287.99 301.34c-5.4372-11.236-8.2899-23.711-8.2792-36.193" fill="none" stroke="#595959" stroke-width="1.5"/>
<path d="m190.63 242.68c-43.918 1.3842-84.09-38.971-82.712-83.007" fill="none" stroke="#595959" stroke-width="1.5"/>
<path d="m159.04 108.37c-27.136-0.8631-51.978 24.096-51.121 51.303" fill="none" stroke="#595959" stroke-width="1.5"/>
<path d="m190.63 140.07c0.53447-16.818-14.831-32.236-31.591-31.704" fill="none" stroke="#595959" stroke-width="1.5"/>
<path d="m171.1 159.67c10.365 0.33109 19.858-9.2064 19.529-19.599" fill="none" stroke="#595959" stroke-width="1.5"/>
<path d="m171.1 159.67c-6.4045 0.20269-12.263-5.6836-12.062-12.105" fill="none" stroke="#595959" stroke-width="1.5"/>
<path d="m166.51 140.07c-3.9754-0.11678-7.5834 3.5063-7.467 7.4936" fill="none" stroke="#595959" stroke-width="1.5"/>
<path d="m166.51 140.07c2.4464-0.0719 4.6667 2.1577 4.595 4.6114" fill="none" stroke="#595959" stroke-width="1.5"/>
<path d="m168.23 147.56c1.529 0.0449 2.9166-1.3486 2.8719-2.8821" fill="none" stroke="#595959" stroke-width="1.5"/>
<path d="m168.23 147.56c-0.57437-0.57641-1.1487-1.1528-1.7231-1.7292" fill="none" stroke="#595959" stroke-width="1.5"/>
<path d="m167.66 144.68c-0.21991 0.22069-0.98572 0.98922-1.1487 1.1528" fill="none" stroke="#595959" stroke-width="1.5"/>
<path d="m167.66 144.68 0.57431 0.57636" fill="none" stroke="#595959" stroke-width="1.5"/>
<path d="m167.65 145.83 0.57432-0.57636" fill="none" stroke="#595959" stroke-width="1.5"/>
<path d="m263.45 195.96c-0.0976-0.29645-0.4711-1.4315-0.56031-1.7026" fill="none" stroke="#595959" stroke-width="1.5"/>
<path d="m252.39 189.89c3.9034-1.7603 8.9761 0.35288 10.496 4.3688" fill="none" stroke="#595959" stroke-width="1.5"/>
<path d="m249.7 196.4c-1.0827-2.4223 0.21501-5.5723 2.6863-6.5166" fill="none" stroke="#595959" stroke-width="1.5"/>
<path d="m253.71 198.07c-1.4912 0.67248-3.4291-0.13481-4.0099-1.669" fill="none" stroke="#595959" stroke-width="1.5"/>
<path d="m253.71 198.07c0.3419-0.82938 0.68379-1.6588 1.0257-2.4882" fill="none" stroke="#595959" stroke-width="1.5"/>
<path d="m253.21 194.95c0.28717 0.11952 1.3093 0.54495 1.5332 0.63813" fill="none" stroke="#595959" stroke-width="1.5"/>
<path d="m253.21 194.95-0.39074 0.94786" fill="none" stroke="#595959" stroke-width="1.5"/>
<path d="m253.4 196.14-0.58967-0.24543" fill="none" stroke="#595959" stroke-width="1.5"/>
<path d="m253.4 196.14 0.14652-0.35543" fill="none" stroke="#595959" stroke-width="1.5"/>
<path d="m253.32 195.69 0.23586 0.0982" fill="none" stroke="#595959" stroke-width="1.5"/>
<path d="m253.32 195.69-0.0488 0.11846" fill="none" stroke="#595959" stroke-width="1.5"/>
<path d="m253.38 195.85-0.11793-0.0491" fill="none" stroke="#595959" stroke-width="1.5"/>
<path d="m252.39 189.89c-3.5454 1.5986-8.1511-0.317-9.5302-3.9603" fill="none" stroke="#595959" stroke-width="1.5"/>
<path d="m245.3 180.01c-2.245 0.85772-3.4245 3.7168-2.4423 5.9146" fill="none" stroke="#595959" stroke-width="1.5"/>
<path d="m248.94 181.53c-0.60019-0.26778-3.0269-1.2762-3.64-1.5126" fill="none" stroke="#595959" stroke-width="1.5"/>
<path d="m248.01 183.79c0.311-0.75317 0.622-1.5063 0.933-2.2595" fill="none" stroke="#595959" stroke-width="1.5"/>
<path d="m248.01 183.79c-0.28724-0.11936-1.2138-0.50439-1.3898-0.57755" fill="none" stroke="#595959" stroke-width="1.5"/>
<path d="m246.98 182.34-0.35673 0.86392" fill="none" stroke="#595959" stroke-width="1.5"/>
<path d="m246.98 182.34 0.52945 0.22001" fill="none" stroke="#595959" stroke-width="1.5"/>
<path d="m247.37 182.9 0.13721-0.33227" fill="none" stroke="#595959" stroke-width="1.5"/>
<path d="m247.37 182.9-0.19854-0.0825" fill="none" stroke="#595959" stroke-width="1.5"/>
<path d="m247.22 182.68-0.0549 0.13291" fill="none" stroke="#595959" stroke-width="1.5"/>
<path d="m247.22 182.68 0.0662 0.0275" fill="none" stroke="#595959" stroke-width="1.5"/>
<path d="m247.26 182.77 0.0274-0.0664" fill="none" stroke="#595959" stroke-width="1.5"/>
<path d="m286.46 239.67c5.0614-11.246-1.0406-26.012-12.528-30.368" fill="none" stroke="#595959" stroke-width="1.5"/>
<path d="m255.25 217.07c2.6847-7.1384 11.77-10.91 18.69-7.773" fill="none" stroke="#595959" stroke-width="1.5"/>
<path d="m260.03 228.67c-4.3988-1.6799-6.7129-7.2855-4.7852-11.599" fill="none" stroke="#595959" stroke-width="1.5"/>
<path d="m267.17 225.7c-1.0345 2.7319-4.4859 4.1661-7.1399 2.9694" fill="none" stroke="#595959" stroke-width="1.5"/>
<path d="m267.17 225.7c0.73615-1.6469-0.14761-3.7872-1.8271-4.4286" fill="none" stroke="#595959" stroke-width="1.5"/>
<path d="m262.61 222.41c0.90998-0.37846 1.82-0.75691 2.7299-1.1354" fill="none" stroke="#595959" stroke-width="1.5"/>
<path d="m262.61 222.41c0.119 0.28845 0.58301 1.4132 0.69602 1.6871" fill="none" stroke="#595959" stroke-width="1.5"/>
<path d="m264.36 223.66c-0.28723 0.11946-0.9872 0.41057-1.05 0.43668" fill="none" stroke="#595959" stroke-width="1.5"/>
<path d="m264.36 223.66-0.261-0.63263" fill="none" stroke="#595959" stroke-width="1.5"/>
<path d="m263.68 223.2 0.41997-0.17467" fill="none" stroke="#595959" stroke-width="1.5"/>
<path d="m263.68 223.2 0.087 0.21086" fill="none" stroke="#595959" stroke-width="1.5"/>
<path d="m263.98 223.32-0.20997 0.0873" fill="none" stroke="#595959" stroke-width="1.5"/>
<path d="m288.11 228.52c-0.15483-2.6163 0.28991-5.2661 1.2906-7.6866" fill="none" stroke="#595959" stroke-width="1.5"/>
<path d="m303.4 215.01c-5.189-2.3538-11.993 0.4821-14.004 5.8272" fill="none" stroke="#595959" stroke-width="1.5"/>
<path d="m273.94 209.3c-8.6205-3.2703-13.176-14.336-9.3872-22.765" fill="none" stroke="#595959" stroke-width="1.5"/>
<path d="m278.56 180.7c-5.1906-2.3544-11.997 0.48249-14.009 5.8292" fill="none" stroke="#595959" stroke-width="1.5"/>
<path d="m282.14 189.4c1.4449-3.232-0.28708-7.4351-3.5854-8.6951" fill="none" stroke="#595959" stroke-width="1.5"/>
<path d="m276.79 191.62c1.9902 0.8973 4.5765-0.17985 5.3516-2.2269" fill="none" stroke="#595959" stroke-width="1.5"/>
<path d="m276.79 191.62c-0.45632-1.1066-0.91263-2.2133-1.369-3.3199" fill="none" stroke="#595959" stroke-width="1.5"/>
<path d="m277.47 187.45c-0.68207 0.28382-1.3641 0.56764-2.0462 0.85145" fill="none" stroke="#595959" stroke-width="1.5"/>
<path d="m277.47 187.45c0.11894 0.28846 0.46661 1.1316 0.5215 1.2647" fill="none" stroke="#595959" stroke-width="1.5"/>
<path d="m277.2 189.05 0.78699-0.32748" fill="none" stroke="#595959" stroke-width="1.5"/>
<path d="m277.2 189.05-0.19556-0.47426" fill="none" stroke="#595959" stroke-width="1.5"/>
<path d="m277.32 188.44-0.31478 0.13098" fill="none" stroke="#595959" stroke-width="1.5"/>
<path d="m277.32 188.44 0.0652 0.15807" fill="none" stroke="#595959" stroke-width="1.5"/>
<path d="m277.23 188.66 0.15738-0.0655" fill="none" stroke="#595959" stroke-width="1.5"/>
<path d="m69.992 126.83c-0.20318-0.23642-0.9811-1.1416-1.1669-1.3578" fill="none" stroke="#595959" stroke-width="1.5"/>
<path d="m57.462 125.47c2.935-3.1254 8.4274-3.1213 11.363 5e-3" fill="none" stroke="#595959" stroke-width="1.5"/>
<path d="m57.465 132.52c-1.924-1.8221-1.9262-5.2307-0.0031-7.0523" fill="none" stroke="#595959" stroke-width="1.5"/>
<path d="m61.806 132.52c-1.1212 1.194-3.2195 1.1924-4.3411-2e-3" fill="none" stroke="#595959" stroke-width="1.5"/>
<path d="m61.806 132.52c-3.95e-4 -0.89755-7.9e-4 -1.7951-0.0012-2.6927" fill="none" stroke="#595959" stroke-width="1.5"/>
<path d="m60.145 129.83c0.31089 1.3e-4 1.4174 6.2e-4 1.6598 7.3e-4" fill="none" stroke="#595959" stroke-width="1.5"/>
<path d="m60.145 129.83 4.52e-4 1.0258" fill="none" stroke="#595959" stroke-width="1.5"/>
<path d="m60.784 130.85-0.63838-2.8e-4" fill="none" stroke="#595959" stroke-width="1.5"/>
<path d="m60.784 130.85-1.69e-4 -0.38465" fill="none" stroke="#595959" stroke-width="1.5"/>
<path d="m60.528 130.47 0.25534 1.1e-4" fill="none" stroke="#595959" stroke-width="1.5"/>
<path d="m60.528 130.47 5.6e-5 0.12821" fill="none" stroke="#595959" stroke-width="1.5"/>
<path d="m60.656 130.6-0.12766-6e-5" fill="none" stroke="#595959" stroke-width="1.5"/>
<path d="m57.462 125.47c-2.6658 2.8384-7.6515 2.8373-10.315 9e-4" fill="none" stroke="#595959" stroke-width="1.5"/>
<path d="m47.147 119.06c-1.7469 1.6545-1.7462 4.749-5.6e-4 6.4022" fill="none" stroke="#595959" stroke-width="1.5"/>
<path d="m51.087 119.06c-0.65662-0.0169-3.2832-0.0167-3.9398 3.4e-4" fill="none" stroke="#595959" stroke-width="1.5"/>
<path d="m51.087 121.51c7.2e-5 -0.81526 1.43e-4 -1.6305 2.14e-4 -2.4458" fill="none" stroke="#595959" stroke-width="1.5"/>
<path d="m51.087 121.51c-0.31089 3e-5 -1.3138 1.2e-4 -1.5043 1.3e-4" fill="none" stroke="#595959" stroke-width="1.5"/>
<path d="m49.583 120.58-8.2e-5 0.93514" fill="none" stroke="#595959" stroke-width="1.5"/>
<path d="m49.583 120.58 0.57306-5e-5" fill="none" stroke="#595959" stroke-width="1.5"/>
<path d="m50.156 120.93 3.2e-5 -0.35966" fill="none" stroke="#595959" stroke-width="1.5"/>
<path d="m50.156 120.93-0.21489 2e-5" fill="none" stroke="#595959" stroke-width="1.5"/>
<path d="m49.941 120.79-1.2e-5 0.14386" fill="none" stroke="#595959" stroke-width="1.5"/>
<path d="m49.941 120.79 0.07162-1e-5" fill="none" stroke="#595959" stroke-width="1.5"/>
<path d="m50.012 120.86 6e-6 -0.0719" fill="none" stroke="#595959" stroke-width="1.5"/>
<path d="m107.92 158.37c0.38759-12.334-10.881-23.633-23.155-23.245" fill="none" stroke="#595959" stroke-width="1.5"/>
<path d="m70.465 149.48c-0.2417-7.6261 6.7133-14.6 14.303-14.359" fill="none" stroke="#595959" stroke-width="1.5"/>
<path d="m79.309 158.36c-4.7046 0.13726-8.9802-4.1531-8.8439-8.8784" fill="none" stroke="#595959" stroke-width="1.5"/>
<path d="m84.773 152.87c0.086 2.9212-2.5558 5.5717-5.4641 5.4854" fill="none" stroke="#595959" stroke-width="1.5"/>
<path d="m84.773 152.87c0.0521-1.8043-1.5805-3.4423-3.3768-3.3899" fill="none" stroke="#595959" stroke-width="1.5"/>
<path d="m79.307 151.58c0.6964-0.69912 1.3928-1.3982 2.0892-2.0974" fill="none" stroke="#595959" stroke-width="1.5"/>
<path d="m79.307 151.58c0.21993 0.22079 1.0775 1.0817 1.2864 1.2914" fill="none" stroke="#595959" stroke-width="1.5"/>
<path d="m81.397 152.07c-0.21981 0.22066-0.75549 0.75843-0.80352 0.80665" fill="none" stroke="#595959" stroke-width="1.5"/>
<path d="m81.397 152.07-0.48238-0.48426" fill="none" stroke="#595959" stroke-width="1.5"/>
<path d="m80.594 151.91 0.3214-0.32265" fill="none" stroke="#595959" stroke-width="1.5"/>
<path d="m80.594 151.91 0.16078 0.16141" fill="none" stroke="#595959" stroke-width="1.5"/>
<path d="m80.915 151.9-0.16069 0.16132" fill="none" stroke="#595959" stroke-width="1.5"/>
<path d="m105.19 147.44c-1.1407-2.3577-1.7402-4.9766-1.7387-7.5972" fill="none" stroke="#595959" stroke-width="1.5"/>
<path d="m114.17 129.08c-5.6915-0.18186-10.896 5.0513-10.716 10.762" fill="none" stroke="#595959" stroke-width="1.5"/>
<path d="m120.8 135.74c0.10244-3.5398-3.0995-6.7569-6.6261-6.6544" fill="none" stroke="#595959" stroke-width="1.5"/>
<path d="m116.7 139.85c2.1802 0.0647 4.1583-1.9231 4.0938-4.1113" fill="none" stroke="#595959" stroke-width="1.5"/>
<path d="m116.7 139.85c-0.84332-0.84692-1.6866-1.6938-2.53-2.5408" fill="none" stroke="#595959" stroke-width="1.5"/>
<path d="m115.74 135.74c-0.52176 0.52399-1.0435 1.048-1.5653 1.572" fill="none" stroke="#595959" stroke-width="1.5"/>
<path d="m115.74 135.74c0.21989 0.22083 0.86241 0.86609 0.96378 0.9679" fill="none" stroke="#595959" stroke-width="1.5"/>
<path d="m116.1 137.31 0.60201-0.6046" fill="none" stroke="#595959" stroke-width="1.5"/>
<path d="m116.1 137.31-0.36141-0.36295" fill="none" stroke="#595959" stroke-width="1.5"/>
<path d="m115.98 136.7-0.24079 0.24183" fill="none" stroke="#595959" stroke-width="1.5"/>
<path d="m115.98 136.7 0.12046 0.12097" fill="none" stroke="#595959" stroke-width="1.5"/>
<path d="m115.98 136.95 0.12039-0.1209" fill="none" stroke="#595959" stroke-width="1.5"/>
<path d="m114.17 129.08c5.1694 0.16497 9.8966-4.5828 9.7332-9.7638" fill="none" stroke="#595959" stroke-width="1.5"/>
<path d="m117.89 113.28c3.2036-0.0932 6.1119 2.8261 6.019 6.0379" fill="none" stroke="#595959" stroke-width="1.5"/>
<path d="m114.17 117.01c-0.0586-1.9849 1.7378-3.7878 3.7175-3.7292" fill="none" stroke="#595959" stroke-width="1.5"/>
<path d="m116.47 119.32c-0.76646-0.76887-1.5329-1.5377-2.2994-2.3066" fill="none" stroke="#595959" stroke-width="1.5"/>
<path d="m116.47 119.32c0.47313-0.47463 0.94627-0.94925 1.4194-1.4239" fill="none" stroke="#595959" stroke-width="1.5"/>
<path d="m117.01 117.01c0.22001 0.2207 0.80612 0.80866 0.87917 0.88193" fill="none" stroke="#595959" stroke-width="1.5"/>
<path d="m117.01 117.01-0.54072 0.54242" fill="none" stroke="#595959" stroke-width="1.5"/>
<path d="m116.8 117.89-0.33814-0.3392" fill="none" stroke="#595959" stroke-width="1.5"/>
<path d="m116.8 117.89 0.20277-0.2034" fill="none" stroke="#595959" stroke-width="1.5"/>
<path d="m116.87 117.55 0.13525 0.13568" fill="none" stroke="#595959" stroke-width="1.5"/>
<path d="m116.87 117.55-0.0676 0.0678" fill="none" stroke="#595959" stroke-width="1.5"/>
<path d="m116.87 117.69-0.0676-0.0678" fill="none" stroke="#595959" stroke-width="1.5"/>
<path d="m84.769 135.12c-9.2114 0.28914-17.64-8.1854-17.354-17.428" fill="none" stroke="#595959" stroke-width="1.5"/>
<path d="m78.134 106.93c-5.6933-0.18191-10.9 5.0529-10.72 10.765" fill="none" stroke="#595959" stroke-width="1.5"/>
<path d="m84.763 113.59c0.10246-3.541-3.1005-6.759-6.6282-6.6565" fill="none" stroke="#595959" stroke-width="1.5"/>
<path d="m80.668 117.7c2.1809 0.0647 4.1596-1.9237 4.0951-4.1126" fill="none" stroke="#595959" stroke-width="1.5"/>
<path d="m80.668 117.7c-0.84358-0.84719-1.6872-1.6944-2.5308-2.5416" fill="none" stroke="#595959" stroke-width="1.5"/>
<path d="m79.703 113.58c-0.52192 0.52415-1.0438 1.0483-1.5658 1.5725" fill="none" stroke="#595959" stroke-width="1.5"/>
<path d="m79.703 113.58c0.21989 0.22083 0.86262 0.8663 0.96409 0.9682" fill="none" stroke="#595959" stroke-width="1.5"/>
<path d="m80.064 115.16 0.60221-0.60479" fill="none" stroke="#595959" stroke-width="1.5"/>
<path d="m80.064 115.16-0.36152-0.36307" fill="none" stroke="#595959" stroke-width="1.5"/>
<path d="m79.944 114.55-0.24087 0.24191" fill="none" stroke="#595959" stroke-width="1.5"/>
<path d="m79.944 114.55 0.1205 0.12101" fill="none" stroke="#595959" stroke-width="1.5"/>
<path d="m79.944 114.79 0.12043-0.12094" fill="none" stroke="#595959" stroke-width="1.5"/>
<path d="m120.19 203.18c-1.6941-2.2875-3.558-4.4476-5.5615-6.4672" fill="none" stroke="#595959" stroke-width="1.5"/>
<path d="m60.456 196.7c13.921-14.885 40.263-14.866 54.177 9e-3" fill="none" stroke="#595959" stroke-width="1.5"/>
<path d="m60.462 230.3c-9.1649-8.6291-9.1663-24.97-0.0057-33.599" fill="none" stroke="#595959" stroke-width="1.5"/>
<path d="m81.159 230.3c-5.3203 5.687-15.378 5.6793-20.697-4e-3" fill="none" stroke="#595959" stroke-width="1.5"/>
<path d="m81.158 230.3c3.5019-3.3144 3.499-9.515-0.0022-12.829" fill="none" stroke="#595959" stroke-width="1.5"/>
<path d="m73.243 217.47c2.0445-2.1755 5.8694-2.1737 7.9134 1e-3" fill="none" stroke="#595959" stroke-width="1.5"/>
<path d="m73.243 217.47c-1.3341 1.2626-1.3329 3.6247 8.25e-4 4.887" fill="none" stroke="#595959" stroke-width="1.5"/>
<path d="m76.287 222.36c-1.0145-1.7e-4 -2.029-3.4e-4 -3.0436-5.2e-4" fill="none" stroke="#595959" stroke-width="1.5"/>
<path d="m76.287 222.36c-5.3e-5 -0.3121-2.59e-4 -1.5338-3.1e-4 -1.8326" fill="none" stroke="#595959" stroke-width="1.5"/>
<path d="m75.07 220.53c0.311 5e-5 1.1226 1.9e-4 1.2174 2.1e-4" fill="none" stroke="#595959" stroke-width="1.5"/>
<path d="m75.07 220.53 1.03e-4 0.61081" fill="none" stroke="#595959" stroke-width="1.5"/>
<path d="m75.678 221.14-0.60865-1e-4" fill="none" stroke="#595959" stroke-width="1.5"/>
<path d="m60.456 196.7c-12.641 13.519-36.559 13.513-49.179 0.0185" fill="none" stroke="#595959" stroke-width="1.5"/>
<path d="m11.289 166.22c-8.326 7.8403-8.3226 22.675-0.01146 30.503" fill="none" stroke="#595959" stroke-width="1.5"/>
<path d="m30.072 166.21c-4.8246-5.1579-13.953-5.1538-18.784 7e-3" fill="none" stroke="#595959" stroke-width="1.5"/>
<path d="m30.068 177.86c3.1826-3.0124 3.183-8.6446 0.0044-11.653" fill="none" stroke="#595959" stroke-width="1.5"/>
<path d="m30.068 177.86c-1.854 1.9727-5.3205 1.9729-7.1719 3e-3" fill="none" stroke="#595959" stroke-width="1.5"/>
<path d="m22.898 173.41c-1.2169 1.1518-1.217 3.3053-0.0017 4.4554" fill="none" stroke="#595959" stroke-width="1.5"/>
<path d="m22.898 173.41c0.91071-3.4e-4 1.8214-6.9e-4 2.7321-1e-3" fill="none" stroke="#595959" stroke-width="1.5"/>
<path d="m25.629 175.12c1.17e-4 -0.3121 5.47e-4 -1.4545 6.44e-4 -1.7136" fill="none" stroke="#595959" stroke-width="1.5"/>
<path d="m25.629 175.12-1.0245 3.8e-4" fill="none" stroke="#595959" stroke-width="1.5"/>
<path d="m24.605 174.44-2.58e-4 0.68542" fill="none" stroke="#595959" stroke-width="1.5"/>
<path d="m24.605 174.44 0.34148-1.3e-4" fill="none" stroke="#595959" stroke-width="1.5"/>
<path d="m24.946 174.78 1.28e-4 -0.34268" fill="none" stroke="#595959" stroke-width="1.5"/>
<path d="m31.483 252.71c-0.1399 0.27884-0.67554 1.3465-0.80346 1.6014" fill="none" stroke="#595959" stroke-width="1.5"/>
<path d="m35.023 264.85c-4.0006-1.5252-6.0986-6.6192-4.3439-10.538" fill="none" stroke="#595959" stroke-width="1.5"/>
<path d="m41.514 262.15c-0.94121 2.481-4.0785 3.7875-6.4914 2.7015" fill="none" stroke="#595959" stroke-width="1.5"/>
<path d="m39.855 258.13c1.5283 0.58268 2.3298 2.5287 1.6595 4.0256" fill="none" stroke="#595959" stroke-width="1.5"/>
<path d="m39.855 258.13c-0.82617 0.34383-1.6523 0.68765-2.4785 1.0315" fill="none" stroke="#595959" stroke-width="1.5"/>
<path d="m38.011 260.7c-0.11884-0.28829-0.54184-1.3144-0.6345-1.5392" fill="none" stroke="#595959" stroke-width="1.5"/>
<path d="m38.011 260.7 0.94419-0.39294" fill="none" stroke="#595959" stroke-width="1.5"/>
<path d="m38.711 259.71 0.24404 0.59199" fill="none" stroke="#595959" stroke-width="1.5"/>
<path d="m38.711 259.71-0.35406 0.14735" fill="none" stroke="#595959" stroke-width="1.5"/>
<path d="m38.455 260.1-0.09761-0.23679" fill="none" stroke="#595959" stroke-width="1.5"/>
<path d="m38.455 260.1 0.11801-0.0491" fill="none" stroke="#595959" stroke-width="1.5"/>
<path d="m38.524 259.93 0.0488 0.11838" fill="none" stroke="#595959" stroke-width="1.5"/>
<path d="m35.024 264.85c3.6332 1.3855 5.5402 6.0086 3.9483 9.5637" fill="none" stroke="#595959" stroke-width="1.5"/>
<path d="m33.078 276.87c2.1917 0.98659 5.0403-0.19819 5.8942-2.4494" fill="none" stroke="#595959" stroke-width="1.5"/>
<path d="m31.57 273.21c0.23571 0.61528 1.2411 3.0505 1.508 3.6528" fill="none" stroke="#595959" stroke-width="1.5"/>
<path d="m33.821 272.28c-0.75058 0.31191-1.5012 0.62382-2.2517 0.93572" fill="none" stroke="#595959" stroke-width="1.5"/>
<path d="m33.821 272.28c0.119 0.28824 0.50286 1.218 0.57579 1.3947" fill="none" stroke="#595959" stroke-width="1.5"/>
<path d="m33.536 274.03 0.86095-0.35778" fill="none" stroke="#595959" stroke-width="1.5"/>
<path d="m33.536 274.03-0.21935-0.53131" fill="none" stroke="#595959" stroke-width="1.5"/>
<path d="m33.648 273.36-0.33113 0.13761" fill="none" stroke="#595959" stroke-width="1.5"/>
<path d="m33.648 273.36 0.08225 0.19923" fill="none" stroke="#595959" stroke-width="1.5"/>
<path d="m33.598 273.62 0.13245-0.055" fill="none" stroke="#595959" stroke-width="1.5"/>
<path d="m33.598 273.62-0.02741-0.0664" fill="none" stroke="#595959" stroke-width="1.5"/>
<path d="m33.637 273.52-0.06622 0.0275" fill="none" stroke="#595959" stroke-width="1.5"/>
<path d="m46.002 205.48c-11.503 4.3606-17.592 19.132-12.539 30.364" fill="none" stroke="#595959" stroke-width="1.5"/>
<path d="m52.156 243.61c-6.9281 3.1424-16.01-0.63713-18.692-7.7662" fill="none" stroke="#595959" stroke-width="1.5"/>
<path d="m56.945 232.01c1.9267 4.3093-0.38671 9.9152-4.789 11.597" fill="none" stroke="#595959" stroke-width="1.5"/>
<path d="m49.804 229.04c2.6564-1.1976 6.1074 0.23744 7.1409 2.9668" fill="none" stroke="#595959" stroke-width="1.5"/>
<path d="m49.804 229.04c-1.681 0.64215-2.5641 2.7826-1.8285 4.428" fill="none" stroke="#595959" stroke-width="1.5"/>
<path d="m50.706 234.6c-0.91011-0.37813-1.8202-0.75625-2.7303-1.1344" fill="none" stroke="#595959" stroke-width="1.5"/>
<path d="m50.706 234.6c0.1191-0.2884 0.58348-1.413 0.69657-1.6868" fill="none" stroke="#595959" stroke-width="1.5"/>
<path d="m50.353 232.48c0.28727 0.11935 0.98734 0.41021 1.0501 0.43629" fill="none" stroke="#595959" stroke-width="1.5"/>
<path d="m50.353 232.48-0.26121 0.63254" fill="none" stroke="#595959" stroke-width="1.5"/>
<path d="m50.512 233.29-0.42003-0.17451" fill="none" stroke="#595959" stroke-width="1.5"/>
<path d="m50.512 233.29 0.08706-0.21083" fill="none" stroke="#595959" stroke-width="1.5"/>
<path d="m50.388 232.99 0.21 0.0872" fill="none" stroke="#595959" stroke-width="1.5"/>
<path d="m36.989 212.19c-1.734 1.9598-3.9156 3.5179-6.3288 4.5193" fill="none" stroke="#595959" stroke-width="1.5"/>
<path d="m16.651 210.89c2.0107 5.3465 8.8202 8.1695 14.009 5.8172" fill="none" stroke="#595959" stroke-width="1.5"/>
<path d="m20.242 202.2c-3.2981 1.2596-5.0345 5.4594-3.5905 8.6899" fill="none" stroke="#595959" stroke-width="1.5"/>
<path d="m25.593 204.42c-0.77476-2.0461-3.3618-3.1194-5.3517-2.2223" fill="none" stroke="#595959" stroke-width="1.5"/>
<path d="m25.593 204.42c-0.45697 1.106-0.91394 2.212-1.3709 3.318" fill="none" stroke="#595959" stroke-width="1.5"/>
<path d="m22.176 206.89c0.68207 0.28324 1.3641 0.56647 2.0462 0.8497" fill="none" stroke="#595959" stroke-width="1.5"/>
<path d="m22.176 206.89c0.11915-0.28838 0.46732-1.131 0.52225-1.264" fill="none" stroke="#595959" stroke-width="1.5"/>
<path d="m23.486 205.95-0.78699-0.32681" fill="none" stroke="#595959" stroke-width="1.5"/>
<path d="m23.486 205.95-0.19584 0.47397" fill="none" stroke="#595959" stroke-width="1.5"/>
<path d="m22.975 206.3 0.31478 0.13071" fill="none" stroke="#595959" stroke-width="1.5"/>
<path d="m22.975 206.3 0.06527-0.15798" fill="none" stroke="#595959" stroke-width="1.5"/>
<path d="m23.198 206.2-0.15738-0.0654" fill="none" stroke="#595959" stroke-width="1.5"/>
<path d="m16.652 210.89c-1.8262-4.8558-8.0061-7.4215-12.713-5.2872" fill="none" stroke="#595959" stroke-width="1.5"/>
<path d="m0.68277 213.49c-1.3117-2.9344 0.26299-6.748 3.2554-7.891" fill="none" stroke="#595959" stroke-width="1.5"/>
<path d="m5.5385 215.51c-1.8049 0.81397-4.1522-0.16156-4.8558-2.0194" fill="none" stroke="#595959" stroke-width="1.5"/>
<path d="m6.7822 212.5c-0.41455 1.0048-0.8291 2.0097-1.2436 3.0145" fill="none" stroke="#595959" stroke-width="1.5"/>
<path d="m6.7822 212.5c-0.61801-0.25702-1.236-0.51403-1.854-0.77105" fill="none" stroke="#595959" stroke-width="1.5"/>
<path d="m4.4527 212.88c0.119-0.28844 0.436-1.0568 0.47551-1.1526" fill="none" stroke="#595959" stroke-width="1.5"/>
<path d="m4.4527 212.88 0.70629 0.29373" fill="none" stroke="#595959" stroke-width="1.5"/>
<path d="m5.3418 212.73-0.18288 0.4433" fill="none" stroke="#595959" stroke-width="1.5"/>
<path d="m5.3418 212.73-0.26485-0.11015" fill="none" stroke="#595959" stroke-width="1.5"/>
<path d="m5.0038 212.8 0.073151-0.17732" fill="none" stroke="#595959" stroke-width="1.5"/>
<path d="m5.0038 212.8 0.088275 0.0367" fill="none" stroke="#595959" stroke-width="1.5"/>
<path d="m5.1285 212.75-0.036573 0.0887" fill="none" stroke="#595959" stroke-width="1.5"/>
<path d="m33.464 235.84c3.7913 8.4297-0.78468 19.487-9.4027 22.759" fill="none" stroke="#595959" stroke-width="1.5"/>
<path d="m10.048 252.78c2.0113 5.3481 8.8229 8.1719 14.013 5.8189" fill="none" stroke="#595959" stroke-width="1.5"/>
<path d="m13.639 244.09c-3.299 1.26-5.0358 5.4612-3.5913 8.6926" fill="none" stroke="#595959" stroke-width="1.5"/>
<path d="m18.993 246.31c-0.77502-2.0468-3.3628-3.1204-5.3532-2.223" fill="none" stroke="#595959" stroke-width="1.5"/>
<path d="m18.993 246.31c-0.45708 1.1063-0.91415 2.2127-1.3712 3.319" fill="none" stroke="#595959" stroke-width="1.5"/>
<path d="m15.575 248.78c0.68227 0.28331 1.3645 0.56663 2.0468 0.84994" fill="none" stroke="#595959" stroke-width="1.5"/>
<path d="m15.575 248.78c0.11914-0.28839 0.46739-1.1313 0.52237-1.2644" fill="none" stroke="#595959" stroke-width="1.5"/>
<path d="m16.884 247.84-0.78722-0.3269" fill="none" stroke="#595959" stroke-width="1.5"/>
<path d="m16.884 247.84-0.19588 0.47413" fill="none" stroke="#595959" stroke-width="1.5"/>
<path d="m16.373 248.19 0.31488 0.13076" fill="none" stroke="#595959" stroke-width="1.5"/>
<path d="m16.373 248.19 0.06529-0.15802" fill="none" stroke="#595959" stroke-width="1.5"/>
<path d="m16.596 248.09-0.15743-0.0654" fill="none" stroke="#595959" stroke-width="1.5"/>
<path d="m191.6 196.51c-0.1399-0.27884-0.67554-1.3465-0.80347-1.6014" fill="none" stroke="#595959" stroke-width="1.5"/>
<path d="m195.14 184.37c-4.0006 1.5253-6.0986 6.6192-4.344 10.538" fill="none" stroke="#595959" stroke-width="1.5"/>
<path d="m201.63 187.07c-0.94122-2.481-4.0785-3.7875-6.4914-2.7015" fill="none" stroke="#595959" stroke-width="1.5"/>
<path d="m199.97 191.09c1.5283-0.58268 2.3298-2.5287 1.6595-4.0256" fill="none" stroke="#595959" stroke-width="1.5"/>
<path d="m199.97 191.09c-0.82617-0.34382-1.6523-0.68765-2.4785-1.0315" fill="none" stroke="#595959" stroke-width="1.5"/>
<path d="m198.13 188.52c-0.11884 0.28829-0.54185 1.3144-0.6345 1.5392" fill="none" stroke="#595959" stroke-width="1.5"/>
<path d="m198.13 188.52 0.94419 0.39294" fill="none" stroke="#595959" stroke-width="1.5"/>
<path d="m198.83 189.51 0.24403-0.59199" fill="none" stroke="#595959" stroke-width="1.5"/>
<path d="m198.83 189.51-0.35406-0.14735" fill="none" stroke="#595959" stroke-width="1.5"/>
<path d="m198.57 189.12-0.0976 0.23679" fill="none" stroke="#595959" stroke-width="1.5"/>
<path d="m198.57 189.12 0.118 0.0491" fill="none" stroke="#595959" stroke-width="1.5"/>
<path d="m198.64 189.29 0.0488-0.11839" fill="none" stroke="#595959" stroke-width="1.5"/>
<path d="m195.14 184.37c3.6332-1.3855 5.5402-6.0086 3.9483-9.5637" fill="none" stroke="#595959" stroke-width="1.5"/>
<path d="m193.19 172.35c2.1917-0.98659 5.0403 0.19818 5.8942 2.4494" fill="none" stroke="#595959" stroke-width="1.5"/>
<path d="m191.69 176.01c0.23571-0.61528 1.2411-3.0505 1.508-3.6528" fill="none" stroke="#595959" stroke-width="1.5"/>
<path d="m193.94 176.94c-0.75058-0.3119-1.5012-0.62381-2.2517-0.93572" fill="none" stroke="#595959" stroke-width="1.5"/>
<path d="m193.94 176.94c0.119-0.28824 0.50286-1.218 0.57579-1.3947" fill="none" stroke="#595959" stroke-width="1.5"/>
<path d="m193.65 175.19 0.86095 0.35778" fill="none" stroke="#595959" stroke-width="1.5"/>
<path d="m193.65 175.19-0.21934 0.53131" fill="none" stroke="#595959" stroke-width="1.5"/>
<path d="m193.76 175.86-0.33113-0.1376" fill="none" stroke="#595959" stroke-width="1.5"/>
<path d="m193.76 175.86 0.0822-0.19923" fill="none" stroke="#595959" stroke-width="1.5"/>
<path d="m193.71 175.6 0.13244 0.055" fill="none" stroke="#595959" stroke-width="1.5"/>
<path d="m193.71 175.6-0.0274 0.0664" fill="none" stroke="#595959" stroke-width="1.5"/>
<path d="m193.75 175.7-0.0662-0.0275" fill="none" stroke="#595959" stroke-width="1.5"/>
<path d="m206.12 243.74c-11.503-4.3606-17.592-19.132-12.539-30.364" fill="none" stroke="#595959" stroke-width="1.5"/>
<path d="m212.27 205.61c-6.9281-3.1424-16.01 0.63713-18.692 7.7662" fill="none" stroke="#595959" stroke-width="1.5"/>
<path d="m217.06 217.21c1.9267-4.3093-0.3867-9.9152-4.789-11.597" fill="none" stroke="#595959" stroke-width="1.5"/>
<path d="m209.92 220.18c2.6564 1.1976 6.1074-0.23744 7.1409-2.9668" fill="none" stroke="#595959" stroke-width="1.5"/>
<path d="m209.92 220.18c-1.6809-0.64215-2.5641-2.7826-1.8285-4.428" fill="none" stroke="#595959" stroke-width="1.5"/>
<path d="m210.82 214.62c-0.91011 0.37813-1.8202 0.75625-2.7303 1.1344" fill="none" stroke="#595959" stroke-width="1.5"/>
<path d="m210.82 214.62c0.1191 0.2884 0.58348 1.413 0.69658 1.6868" fill="none" stroke="#595959" stroke-width="1.5"/>
<path d="m210.47 216.74c0.28727-0.11935 0.98734-0.41021 1.0501-0.43629" fill="none" stroke="#595959" stroke-width="1.5"/>
<path d="m210.47 216.74-0.26121-0.63254" fill="none" stroke="#595959" stroke-width="1.5"/>
<path d="m210.63 215.93-0.42003 0.17451" fill="none" stroke="#595959" stroke-width="1.5"/>
<path d="m210.63 215.93 0.0871 0.21083" fill="none" stroke="#595959" stroke-width="1.5"/>
<path d="m210.5 216.23 0.21-0.0873" fill="none" stroke="#595959" stroke-width="1.5"/>
<path d="m197.1 237.03c-1.734-1.9598-3.9156-3.5179-6.3288-4.5193" fill="none" stroke="#595959" stroke-width="1.5"/>
<path d="m176.77 238.33c2.0107-5.3465 8.8202-8.1695 14.009-5.8172" fill="none" stroke="#595959" stroke-width="1.5"/>
<path d="m180.36 247.02c-3.2981-1.2596-5.0345-5.4594-3.5905-8.6899" fill="none" stroke="#595959" stroke-width="1.5"/>
<path d="m185.71 244.8c-0.77476 2.0461-3.3618 3.1194-5.3517 2.2223" fill="none" stroke="#595959" stroke-width="1.5"/>
<path d="m185.71 244.8c-0.45697-1.106-0.91394-2.212-1.3709-3.318" fill="none" stroke="#595959" stroke-width="1.5"/>
<path d="m182.29 242.33c0.68207-0.28323 1.3641-0.56647 2.0462-0.8497" fill="none" stroke="#595959" stroke-width="1.5"/>
<path d="m182.29 242.33c0.11915 0.28838 0.46732 1.131 0.52225 1.264" fill="none" stroke="#595959" stroke-width="1.5"/>
<path d="m183.6 243.27-0.78699 0.3268" fill="none" stroke="#595959" stroke-width="1.5"/>
<path d="m183.6 243.27-0.19584-0.47398" fill="none" stroke="#595959" stroke-width="1.5"/>
<path d="m183.09 242.92 0.31478-0.13072" fill="none" stroke="#595959" stroke-width="1.5"/>
<path d="m183.09 242.92 0.0653 0.15798" fill="none" stroke="#595959" stroke-width="1.5"/>
<path d="m183.31 243.01-0.15738 0.0653" fill="none" stroke="#595959" stroke-width="1.5"/>
<path d="m176.77 238.33c-1.8262 4.8558-8.0061 7.4215-12.713 5.2872" fill="none" stroke="#595959" stroke-width="1.5"/>
<path d="m160.8 235.73c-1.3117 2.9344 0.26299 6.748 3.2554 7.891" fill="none" stroke="#595959" stroke-width="1.5"/>
<path d="m165.65 233.71c-1.8049-0.81397-4.1522 0.16156-4.8558 2.0194" fill="none" stroke="#595959" stroke-width="1.5"/>
<path d="m166.9 236.72c-0.41455-1.0048-0.8291-2.0097-1.2436-3.0145" fill="none" stroke="#595959" stroke-width="1.5"/>
<path d="m166.9 236.72c-0.618 0.25701-1.236 0.51403-1.854 0.77105" fill="none" stroke="#595959" stroke-width="1.5"/>
<path d="m164.57 236.34c0.119 0.28845 0.436 1.0569 0.47551 1.1526" fill="none" stroke="#595959" stroke-width="1.5"/>
<path d="m164.57 236.34 0.70629-0.29373" fill="none" stroke="#595959" stroke-width="1.5"/>
<path d="m165.46 236.49-0.18288-0.4433" fill="none" stroke="#595959" stroke-width="1.5"/>
<path d="m165.46 236.49-0.26485 0.11014" fill="none" stroke="#595959" stroke-width="1.5"/>
<path d="m165.12 236.42 0.0731 0.17732" fill="none" stroke="#595959" stroke-width="1.5"/>
<path d="m165.12 236.42 0.0883-0.0367" fill="none" stroke="#595959" stroke-width="1.5"/>
<path d="m165.24 236.47-0.0366-0.0887" fill="none" stroke="#595959" stroke-width="1.5"/>
<path d="m193.58 213.38c3.7913-8.4297-0.78468-19.487-9.4028-22.759" fill="none" stroke="#595959" stroke-width="1.5"/>
<path d="m170.16 196.44c2.0113-5.3481 8.8229-8.1719 14.013-5.8189" fill="none" stroke="#595959" stroke-width="1.5"/>
<path d="m173.75 205.13c-3.299-1.26-5.0358-5.4612-3.5913-8.6926" fill="none" stroke="#595959" stroke-width="1.5"/>
<path d="m179.11 202.91c-0.77502 2.0468-3.3628 3.1204-5.3532 2.223" fill="none" stroke="#595959" stroke-width="1.5"/>
<path d="m179.11 202.91c-0.45707-1.1063-0.91415-2.2127-1.3712-3.319" fill="none" stroke="#595959" stroke-width="1.5"/>
<path d="m175.69 200.44c0.68226-0.28331 1.3645-0.56663 2.0468-0.84995" fill="none" stroke="#595959" stroke-width="1.5"/>
<path d="m175.69 200.44c0.11915 0.28838 0.46739 1.1313 0.52237 1.2644" fill="none" stroke="#595959" stroke-width="1.5"/>
<path d="m177 201.38-0.78722 0.32689" fill="none" stroke="#595959" stroke-width="1.5"/>
<path d="m177 201.38-0.19588-0.47413" fill="none" stroke="#595959" stroke-width="1.5"/>
<path d="m176.49 201.03 0.31487-0.13076" fill="none" stroke="#595959" stroke-width="1.5"/>
<path d="m176.49 201.03 0.0653 0.15802" fill="none" stroke="#595959" stroke-width="1.5"/>
<path d="m176.71 201.13-0.15743 0.0654" fill="none" stroke="#595959" stroke-width="1.5"/>
<path d="m76.936 310.92c-0.27787 0.14039-1.3417 0.6779-1.5958 0.80627" fill="none" stroke="#595959" stroke-width="1.5"/>
<path d="m64.84 307.37c1.5198 4.0147 6.5957 6.1202 10.5 4.3594" fill="none" stroke="#595959" stroke-width="1.5"/>
<path d="m67.532 300.86c-2.4723 0.94449-3.7743 4.0928-2.6921 6.5142" fill="none" stroke="#595959" stroke-width="1.5"/>
<path d="m71.543 302.52c-0.58058-1.5337-2.5197-2.338-4.0114-1.6654" fill="none" stroke="#595959" stroke-width="1.5"/>
<path d="m71.543 302.52c-0.34264 0.82908-0.68527 1.6582-1.0279 2.4872" fill="none" stroke="#595959" stroke-width="1.5"/>
<path d="m68.982 304.37c0.28728 0.11926 1.3098 0.54377 1.5338 0.63676" fill="none" stroke="#595959" stroke-width="1.5"/>
<path d="m68.982 304.37 0.39158-0.94751" fill="none" stroke="#595959" stroke-width="1.5"/>
<path d="m69.963 303.67-0.58989-0.2449" fill="none" stroke="#595959" stroke-width="1.5"/>
<path d="m69.963 303.67-0.14684 0.35531" fill="none" stroke="#595959" stroke-width="1.5"/>
<path d="m69.58 303.93 0.23595 0.098" fill="none" stroke="#595959" stroke-width="1.5"/>
<path d="m69.58 303.93 0.04894-0.11842" fill="none" stroke="#595959" stroke-width="1.5"/>
<path d="m69.747 303.86-0.11797-0.049" fill="none" stroke="#595959" stroke-width="1.5"/>
<path d="m64.839 307.37c-1.3804-3.6461-5.9869-5.5599-9.5294-3.9624" fill="none" stroke="#595959" stroke-width="1.5"/>
<path d="m52.869 309.32c-0.98296-2.1995 0.19775-5.0581 2.441-5.9151" fill="none" stroke="#595959" stroke-width="1.5"/>
<path d="m56.509 310.84c-0.61308-0.23655-3.0396-1.2455-3.6397-1.5134" fill="none" stroke="#595959" stroke-width="1.5"/>
<path d="m57.441 308.58c-0.31084 0.75323-0.62167 1.5065-0.93251 2.2597" fill="none" stroke="#595959" stroke-width="1.5"/>
<path d="m57.441 308.58c-0.28721-0.11942-1.2137-0.50466-1.3897-0.57785" fill="none" stroke="#595959" stroke-width="1.5"/>
<path d="m55.695 308.86 0.35655-0.86399" fill="none" stroke="#595959" stroke-width="1.5"/>
<path d="m55.695 308.86 0.5294 0.22013" fill="none" stroke="#595959" stroke-width="1.5"/>
<path d="m56.362 308.75-0.13713 0.3323" fill="none" stroke="#595959" stroke-width="1.5"/>
<path d="m56.362 308.75-0.19852-0.0826" fill="none" stroke="#595959" stroke-width="1.5"/>
<path d="m56.108 308.8 0.05485-0.13292" fill="none" stroke="#595959" stroke-width="1.5"/>
<path d="m56.108 308.8 0.06617 0.0275" fill="none" stroke="#595959" stroke-width="1.5"/>
<path d="m56.202 308.76-0.02742 0.0665" fill="none" stroke="#595959" stroke-width="1.5"/>
<path d="m124.01 296.35c-4.3452 11.544-19.064 17.655-30.256 12.583" fill="none" stroke="#595959" stroke-width="1.5"/>
<path d="m86.011 290.18c-3.1313 6.9528 0.635 16.067 7.7389 18.759" fill="none" stroke="#595959" stroke-width="1.5"/>
<path d="m97.567 285.37c-4.2941-1.9336-9.8802 0.38806-11.556 4.806" fill="none" stroke="#595959" stroke-width="1.5"/>
<path d="m100.52 292.54c1.1934-2.6658-0.23665-6.1292-2.9564-7.1663" fill="none" stroke="#595959" stroke-width="1.5"/>
<path d="m100.52 292.54c-0.63987 1.6869-2.7728 2.5732-4.4124 1.835" fill="none" stroke="#595959" stroke-width="1.5"/>
<path d="m94.981 291.63c0.3768 0.91335 0.7536 1.8267 1.1304 2.74" fill="none" stroke="#595959" stroke-width="1.5"/>
<path d="m94.981 291.63c0.28738-0.11952 1.408-0.58555 1.6809-0.69905" fill="none" stroke="#595959" stroke-width="1.5"/>
<path d="m97.097 291.99c-0.11893-0.28828-0.40877-0.99085-0.43476-1.0538" fill="none" stroke="#595959" stroke-width="1.5"/>
<path d="m97.097 291.99-0.63032 0.26214" fill="none" stroke="#595959" stroke-width="1.5"/>
<path d="m96.293 291.83 0.1739 0.42152" fill="none" stroke="#595959" stroke-width="1.5"/>
<path d="m96.293 291.83 0.21009-0.0874" fill="none" stroke="#595959" stroke-width="1.5"/>
<path d="m96.589 291.95-0.08694-0.21075" fill="none" stroke="#595959" stroke-width="1.5"/>
<path d="m117.32 305.4c-1.953 1.7402-3.5056 3.9295-4.5034 6.3511" fill="none" stroke="#595959" stroke-width="1.5"/>
<path d="m118.61 325.81c-5.3277-2.0177-8.1407-8.8514-5.7968-14.058" fill="none" stroke="#595959" stroke-width="1.5"/>
<path d="m127.27 322.2c-1.2552 3.3097-5.4403 5.0522-8.6594 3.6032" fill="none" stroke="#595959" stroke-width="1.5"/>
<path d="m125.06 316.83c2.0389 0.77749 3.1085 3.3736 2.2145 5.3705" fill="none" stroke="#595959" stroke-width="1.5"/>
<path d="m125.06 316.83c-1.1021 0.45858-2.2042 0.91717-3.3063 1.3758" fill="none" stroke="#595959" stroke-width="1.5"/>
<path d="m122.6 320.26c-0.28224-0.68448-0.56447-1.369-0.84671-2.0534" fill="none" stroke="#595959" stroke-width="1.5"/>
<path d="m122.6 320.26c0.28737-0.11957 1.127-0.46896 1.2595-0.52408" fill="none" stroke="#595959" stroke-width="1.5"/>
<path d="m123.53 318.95 0.32565 0.78977" fill="none" stroke="#595959" stroke-width="1.5"/>
<path d="m123.53 318.95-0.47231 0.19653" fill="none" stroke="#595959" stroke-width="1.5"/>
<path d="m123.19 319.46-0.13025-0.31589" fill="none" stroke="#595959" stroke-width="1.5"/>
<path d="m123.19 319.46 0.15742-0.0655" fill="none" stroke="#595959" stroke-width="1.5"/>
<path d="m123.28 319.24 0.0651 0.15794" fill="none" stroke="#595959" stroke-width="1.5"/>
<path d="m118.61 325.81c4.8388 1.8329 7.3958 8.0348 5.2693 12.758" fill="none" stroke="#595959" stroke-width="1.5"/>
<path d="m116.02 341.83c2.9242 1.3164 6.7243-0.26358 7.8631-3.2665" fill="none" stroke="#595959" stroke-width="1.5"/>
<path d="m114.01 336.96c-0.81102 1.8113 0.1612 4.1668 2.0126 4.873" fill="none" stroke="#595959" stroke-width="1.5"/>
<path d="m117.01 335.71c-1.0013 0.41596-2.0026 0.83192-3.0039 1.2479" fill="none" stroke="#595959" stroke-width="1.5"/>
<path d="m117.01 335.71c0.25615 0.6202 0.51229 1.2404 0.76843 1.8606" fill="none" stroke="#595959" stroke-width="1.5"/>
<path d="m116.63 338.05c0.28742-0.1194 1.0531-0.43749 1.1485-0.47713" fill="none" stroke="#595959" stroke-width="1.5"/>
<path d="m116.63 338.05-0.29273-0.70879" fill="none" stroke="#595959" stroke-width="1.5"/>
<path d="m116.78 337.16-0.44173 0.18351" fill="none" stroke="#595959" stroke-width="1.5"/>
<path d="m116.78 337.16 0.10977 0.26579" fill="none" stroke="#595959" stroke-width="1.5"/>
<path d="m116.71 337.5 0.17669-0.0734" fill="none" stroke="#595959" stroke-width="1.5"/>
<path d="m116.71 337.5-0.0366-0.0886" fill="none" stroke="#595959" stroke-width="1.5"/>
<path d="m116.76 337.37-0.0883 0.0367" fill="none" stroke="#595959" stroke-width="1.5"/>
<path d="m93.75 308.94c-8.3998-3.8047-19.418 0.78772-22.678 9.4365" fill="none" stroke="#595959" stroke-width="1.5"/>
<path d="m76.871 332.43c-5.3291-2.0184-8.143-8.8541-5.7984-14.063" fill="none" stroke="#595959" stroke-width="1.5"/>
<path d="m85.532 328.83c-1.2555 3.3107-5.4417 5.0537-8.6617 3.6042" fill="none" stroke="#595959" stroke-width="1.5"/>
<path d="m83.317 323.46c2.0395 0.77775 3.1093 3.3747 2.2151 5.3722" fill="none" stroke="#595959" stroke-width="1.5"/>
<path d="m83.317 323.46c-1.1024 0.45872-2.2048 0.91743-3.3072 1.3762" fill="none" stroke="#595959" stroke-width="1.5"/>
<path d="m80.857 326.89c-0.28232-0.68469-0.56464-1.3694-0.84695-2.0541" fill="none" stroke="#595959" stroke-width="1.5"/>
<path d="m80.857 326.89c0.28736-0.11957 1.1273-0.46907 1.2599-0.52424" fill="none" stroke="#595959" stroke-width="1.5"/>
<path d="m81.791 325.57 0.32575 0.79001" fill="none" stroke="#595959" stroke-width="1.5"/>
<path d="m81.791 325.57-0.47243 0.19658" fill="none" stroke="#595959" stroke-width="1.5"/>
<path d="m81.449 326.09-0.13029-0.316" fill="none" stroke="#595959" stroke-width="1.5"/>
<path d="m81.449 326.09 0.15746-0.0655" fill="none" stroke="#595959" stroke-width="1.5"/>
<path d="m81.541 325.86 0.06514 0.15798" fill="none" stroke="#595959" stroke-width="1.5"/>
<path d="m159.04 108.37c1.0599 0.0788 5.3004 0.39152 6.3607 0.46912" fill="none" stroke="#595959" stroke-width="1.5"/>
<path d="m194.11 80.051c0.48798 15.244-13.451 29.263-28.708 28.783" fill="none" stroke="#595959" stroke-width="1.5"/>
<path d="m176.37 62.264c9.4353-0.29628 18.038 8.3676 17.741 17.787" fill="none" stroke="#595959" stroke-width="1.5"/>
<path d="m165.4 73.26c-0.18487-5.8255 5.1361-11.177 10.967-10.996" fill="none" stroke="#595959" stroke-width="1.5"/>
<path d="m165.4 73.26c-0.10648 3.6077 3.1613 6.8964 6.7737 6.7915" fill="none" stroke="#595959" stroke-width="1.5"/>
<path d="m176.37 75.847c0.0659 2.2333-1.957 4.2692-4.1932 4.2043" fill="none" stroke="#595959" stroke-width="1.5"/>
<path d="m176.37 75.847c-0.86014-0.8624-1.7203-1.7248-2.5804-2.5872" fill="none" stroke="#595959" stroke-width="1.5"/>
<path d="m172.17 74.877c0.53758-0.539 1.0752-1.078 1.6128-1.617" fill="none" stroke="#595959" stroke-width="1.5"/>
<path d="m172.17 74.877c0.22001 0.22059 0.8651 0.86737 0.96764 0.97018" fill="none" stroke="#595959" stroke-width="1.5"/>
<path d="m173.79 75.2-0.64507 0.64677" fill="none" stroke="#595959" stroke-width="1.5"/>
<path d="m173.79 75.2-0.32251-0.32336" fill="none" stroke="#595959" stroke-width="1.5"/>
<path d="m173.14 75.201 0.32252-0.32336" fill="none" stroke="#595959" stroke-width="1.5"/>
<path d="m194.11 80.051c-0.4437-13.834 12.192-26.577 26.045-26.142" fill="none" stroke="#595959" stroke-width="1.5"/>
<path d="m236.25 70.067c0.272-8.5531-7.5318-16.423-16.097-16.157" fill="none" stroke="#595959" stroke-width="1.5"/>
<path d="m226.3 80.051c5.2949 0.16589 10.115-4.7014 9.9477-9.9848" fill="none" stroke="#595959" stroke-width="1.5"/>
<path d="m220.15 73.879c-0.097 3.2761 2.8673 6.2675 6.1495 6.1724" fill="none" stroke="#595959" stroke-width="1.5"/>
<path d="m220.15 73.879c-0.0599-2.0235 1.771-3.8711 3.7982-3.8124" fill="none" stroke="#595959" stroke-width="1.5"/>
<path d="m226.3 72.427c-0.78375-0.78667-1.5675-1.5733-2.3513-2.36" fill="none" stroke="#595959" stroke-width="1.5"/>
<path d="m226.3 72.427c-0.48231 0.4841-0.96461 0.96821-1.4469 1.4523" fill="none" stroke="#595959" stroke-width="1.5"/>
<path d="m223.95 72.971c0.21989 0.22071 0.82276 0.82583 0.90431 0.90769" fill="none" stroke="#595959" stroke-width="1.5"/>
<path d="m223.95 72.971 0.54258-0.5446" fill="none" stroke="#595959" stroke-width="1.5"/>
<path d="m224.86 72.79-0.36171-0.36306" fill="none" stroke="#595959" stroke-width="1.5"/>
<path d="m224.86 72.79-0.18085 0.18152" fill="none" stroke="#595959" stroke-width="1.5"/>
<path d="m224.49 72.789 0.18084 0.18152" fill="none" stroke="#595959" stroke-width="1.5"/>
<path d="m179.89 34.998c-0.0976-0.29636-0.37748-1.1463-0.41983-1.2749" fill="none" stroke="#595959" stroke-width="1.5"/>
<path d="m171.6 30.452c2.9247-1.3182 6.7256 0.26413 7.8648 3.2712" fill="none" stroke="#595959" stroke-width="1.5"/>
<path d="m169.59 35.332c-0.81124-1.8138 0.16108-4.1726 2.0128-4.8797" fill="none" stroke="#595959" stroke-width="1.5"/>
<path d="m172.6 36.581c-1.0015-0.41656-2.003-0.83312-3.0045-1.2497" fill="none" stroke="#595959" stroke-width="1.5"/>
<path d="m172.6 36.581c0.25617-0.62105 0.51234-1.2421 0.76851-1.8631" fill="none" stroke="#595959" stroke-width="1.5"/>
<path d="m172.21 34.24c0.28726 0.11948 1.0531 0.43803 1.1488 0.47782" fill="none" stroke="#595959" stroke-width="1.5"/>
<path d="m172.21 34.24-0.29276 0.70976" fill="none" stroke="#595959" stroke-width="1.5"/>
<path d="m172.36 35.134-0.44183-0.18377" fill="none" stroke="#595959" stroke-width="1.5"/>
<path d="m172.36 35.134 0.10978-0.26615" fill="none" stroke="#595959" stroke-width="1.5"/>
<path d="m172.3 34.794 0.17672 0.07351" fill="none" stroke="#595959" stroke-width="1.5"/>
<path d="m172.3 34.794-0.0366 0.08871" fill="none" stroke="#595959" stroke-width="1.5"/>
<path d="m172.35 34.92-0.0884-0.03675" fill="none" stroke="#595959" stroke-width="1.5"/>
<path d="m171.6 30.451c-2.6562 1.1973-6.1072-0.23704-7.1407-2.9652" fill="none" stroke="#595959" stroke-width="1.5"/>
<path d="m166.29 23.057c-1.682 0.64238-2.5656 2.7834-1.8294 4.4291" fill="none" stroke="#595959" stroke-width="1.5"/>
<path d="m169.02 24.19c-0.90912-0.37752-1.8182-0.75503-2.7274-1.1326" fill="none" stroke="#595959" stroke-width="1.5"/>
<path d="m168.32 25.882c0.1191-0.28835 0.58503-1.4164 0.69889-1.692" fill="none" stroke="#595959" stroke-width="1.5"/>
<path d="m168.32 25.882-1.0414-0.43243" fill="none" stroke="#595959" stroke-width="1.5"/>
<path d="m167.55 24.802-0.26722 0.64695" fill="none" stroke="#595959" stroke-width="1.5"/>
<path d="m167.55 24.802 0.3967 0.16473" fill="none" stroke="#595959" stroke-width="1.5"/>
<path d="m167.84 25.216 0.10278-0.24882" fill="none" stroke="#595959" stroke-width="1.5"/>
<path d="m167.84 25.216-0.14876-0.061773" fill="none" stroke="#595959" stroke-width="1.5"/>
<path d="m167.73 25.054-0.0411 0.09952" fill="none" stroke="#595959" stroke-width="1.5"/>
<path d="m167.73 25.054 0.0496 0.02059" fill="none" stroke="#595959" stroke-width="1.5"/>
<path d="m167.76 25.125 0.0205-0.04976" fill="none" stroke="#595959" stroke-width="1.5"/>
<path d="m197.13 67.725c3.7914-8.4256-0.77672-19.474-9.3864-22.74" fill="none" stroke="#595959" stroke-width="1.5"/>
<path d="m173.74 50.806c2.0117-5.3453 8.8186-8.1699 14.003-5.8206" fill="none" stroke="#595959" stroke-width="1.5"/>
<path d="m177.33 59.492c-3.2958-1.2579-5.0296-5.4555-3.5851-8.6853" fill="none" stroke="#595959" stroke-width="1.5"/>
<path d="m182.68 57.268c-0.77514 2.0457-3.3612 3.1196-5.3496 2.2236" fill="none" stroke="#595959" stroke-width="1.5"/>
<path d="m182.68 57.268c-0.45628-1.1054-0.91256-2.2108-1.3688-3.3162" fill="none" stroke="#595959" stroke-width="1.5"/>
<path d="m179.26 54.802c0.68181-0.2834 1.3636-0.5668 2.0454-0.85019" fill="none" stroke="#595959" stroke-width="1.5"/>
<path d="m179.26 54.802c0.11903 0.28836 0.46667 1.1306 0.52146 1.2633" fill="none" stroke="#595959" stroke-width="1.5"/>
<path d="m180.57 55.738-0.78669 0.32699" fill="none" stroke="#595959" stroke-width="1.5"/>
<path d="m180.57 55.738-0.19554-0.47373" fill="none" stroke="#595959" stroke-width="1.5"/>
<path d="m180.06 55.395 0.31467-0.13079" fill="none" stroke="#595959" stroke-width="1.5"/>
<path d="m180.06 55.395 0.0652 0.1579" fill="none" stroke="#595959" stroke-width="1.5"/>
<path d="m180.28 55.488-0.15732 0.06539" fill="none" stroke="#595959" stroke-width="1.5"/>
<path d="m198.37 59.382c0.15949-0.95952 0.80425-4.7967 0.96715-5.7558" fill="none" stroke="#595959" stroke-width="1.5"/>
<path d="m209.83 49.263c-3.9022-1.7584-8.9733 0.35221-10.493 4.3634" fill="none" stroke="#595959" stroke-width="1.5"/>
<path d="m212.51 55.772c1.0823-2.4194-0.21496-5.5659-2.6855-6.5091" fill="none" stroke="#595959" stroke-width="1.5"/>
<path d="m208.5 57.439c1.4907 0.67175 3.428-0.13455 4.0086-1.6669" fill="none" stroke="#595959" stroke-width="1.5"/>
<path d="m208.5 57.439c-0.34179-0.82843-0.68358-1.6569-1.0254-2.4853" fill="none" stroke="#595959" stroke-width="1.5"/>
<path d="m209.01 54.316c-0.28729 0.11947-1.3091 0.54437-1.5327 0.63735" fill="none" stroke="#595959" stroke-width="1.5"/>
<path d="m209.01 54.316 0.39061 0.94677" fill="none" stroke="#595959" stroke-width="1.5"/>
<path d="m208.81 55.508 0.58949-0.24513" fill="none" stroke="#595959" stroke-width="1.5"/>
<path d="m208.81 55.508-0.14648-0.35503" fill="none" stroke="#595959" stroke-width="1.5"/>
<path d="m208.9 55.055-0.23578 0.09805" fill="none" stroke="#595959" stroke-width="1.5"/>
<path d="m208.9 55.055 0.0488 0.11833" fill="none" stroke="#595959" stroke-width="1.5"/>
<path d="m208.83 55.222 0.11789-0.04902" fill="none" stroke="#595959" stroke-width="1.5"/>
<path d="m209.83 49.263c3.5442 1.5968 8.1486-0.31675 9.5275-3.956" fill="none" stroke="#595959" stroke-width="1.5"/>
<path d="m216.91 39.399c2.2442 0.85672 3.4233 3.7126 2.4413 5.9079" fill="none" stroke="#595959" stroke-width="1.5"/>
<path d="m213.27 40.91c0.60001-0.26748 3.026-1.2748 3.639-1.511" fill="none" stroke="#595959" stroke-width="1.5"/>
<path d="m214.21 43.167c-0.31088-0.75231-0.62175-1.5046-0.93262-2.2569" fill="none" stroke="#595959" stroke-width="1.5"/>
<path d="m214.21 43.167c0.28737-0.11932 1.2136-0.50393 1.3894-0.57691" fill="none" stroke="#595959" stroke-width="1.5"/>
<path d="m215.24 41.727 0.35659 0.86294" fill="none" stroke="#595959" stroke-width="1.5"/>
<path d="m215.24 41.727-0.5293 0.21977" fill="none" stroke="#595959" stroke-width="1.5"/>
<path d="m214.85 42.279-0.13715-0.33189" fill="none" stroke="#595959" stroke-width="1.5"/>
<path d="m214.85 42.279 0.19848-0.08241" fill="none" stroke="#595959" stroke-width="1.5"/>
<path d="m214.99 42.063 0.0549 0.13275" fill="none" stroke="#595959" stroke-width="1.5"/>
<path d="m214.99 42.063-0.0661 0.02747" fill="none" stroke="#595959" stroke-width="1.5"/>
<path d="m214.95 42.157-0.0274-0.06637" fill="none" stroke="#595959" stroke-width="1.5"/>
<path d="m187.75 44.985c-6.4588-2.4488-9.8719-10.735-7.0333-17.047" fill="none" stroke="#595959" stroke-width="1.5"/>
<path d="m191.21 23.573c-3.9032-1.7588-8.9756 0.35263-10.496 4.3651" fill="none" stroke="#595959" stroke-width="1.5"/>
<path d="m193.9 30.084c1.0826-2.4202-0.21513-5.5675-2.6863-6.511" fill="none" stroke="#595959" stroke-width="1.5"/>
<path d="m189.89 31.752c1.4911 0.6719 3.4289-0.13471 4.0096-1.6676" fill="none" stroke="#595959" stroke-width="1.5"/>
<path d="m189.89 31.752c-0.3419-0.82867-0.68379-1.6573-1.0257-2.486" fill="none" stroke="#595959" stroke-width="1.5"/>
<path d="m190.39 28.628c-0.28728 0.11948-1.3093 0.54454-1.5331 0.6376" fill="none" stroke="#595959" stroke-width="1.5"/>
<path d="m190.39 28.628 0.39074 0.94704" fill="none" stroke="#595959" stroke-width="1.5"/>
<path d="m190.19 29.82 0.58964-0.24522" fill="none" stroke="#595959" stroke-width="1.5"/>
<path d="m190.19 29.82-0.14652-0.35513" fill="none" stroke="#595959" stroke-width="1.5"/>
<path d="m190.28 29.367-0.23585 0.09809" fill="none" stroke="#595959" stroke-width="1.5"/>
<path d="m190.28 29.367 0.0488 0.11837" fill="none" stroke="#595959" stroke-width="1.5"/>
<path d="m190.21 29.534 0.11792-0.04904" fill="none" stroke="#595959" stroke-width="1.5"/>
<path d="m126.4 120.19c2.2875-1.6941 4.4476-3.558 6.4672-5.5615" fill="none" stroke="#595959" stroke-width="1.5"/>
<path d="m132.88 60.456c14.885 13.921 14.866 40.263-9e-3 54.177" fill="none" stroke="#595959" stroke-width="1.5"/>
<path d="m99.282 60.462c8.6291-9.1649 24.97-9.1663 33.599-0.0057" fill="none" stroke="#595959" stroke-width="1.5"/>
<path d="m99.279 81.159c-5.687-5.3203-5.6793-15.378 0.0035-20.697" fill="none" stroke="#595959" stroke-width="1.5"/>
<path d="m99.279 81.158c3.3144 3.5019 9.515 3.499 12.829-0.0022" fill="none" stroke="#595959" stroke-width="1.5"/>
<path d="m112.11 73.243c2.1755 2.0445 2.1737 5.8694-1e-3 7.9134" fill="none" stroke="#595959" stroke-width="1.5"/>
<path d="m112.11 73.243c-1.2626-1.3341-3.6247-1.3329-4.887 8.25e-4" fill="none" stroke="#595959" stroke-width="1.5"/>
<path d="m107.22 76.287c1.8e-4 -1.0145 3.5e-4 -2.029 5.2e-4 -3.0436" fill="none" stroke="#595959" stroke-width="1.5"/>
<path d="m107.22 76.287c0.31211-5.3e-5 1.5338-2.59e-4 1.8326-3.1e-4" fill="none" stroke="#595959" stroke-width="1.5"/>
<path d="m109.05 75.07c-5e-5 0.311-1.9e-4 1.1226-2e-4 1.2174" fill="none" stroke="#595959" stroke-width="1.5"/>
<path d="m109.05 75.07-0.61081 1.03e-4" fill="none" stroke="#595959" stroke-width="1.5"/>
<path d="m108.44 75.678 1.1e-4 -0.60865" fill="none" stroke="#595959" stroke-width="1.5"/>
<path d="m132.88 60.456c-13.507-12.606-13.521-36.569-0.01857-49.179" fill="none" stroke="#595959" stroke-width="1.5"/>
<path d="m163.37 11.289c-7.8471-8.3216-22.654-8.3301-30.503-0.011436" fill="none" stroke="#595959" stroke-width="1.5"/>
<path d="m163.37 30.072c5.1606-4.8201 5.149-13.966-7e-3 -18.784" fill="none" stroke="#595959" stroke-width="1.5"/>
<path d="m151.72 30.068c3.0151 3.1809 8.636 3.1859 11.653 0.0044" fill="none" stroke="#595959" stroke-width="1.5"/>
<path d="m151.72 30.068c-1.9708-1.8487-1.9741-5.322-3e-3 -7.1719" fill="none" stroke="#595959" stroke-width="1.5"/>
<path d="m156.17 22.898c-1.1528-1.2162-3.302-1.2181-4.4554-0.0017" fill="none" stroke="#595959" stroke-width="1.5"/>
<path d="m156.17 22.898c3.3e-4 0.9107 6.7e-4 1.8214 1e-3 2.7321" fill="none" stroke="#595959" stroke-width="1.5"/>
<path d="m154.46 25.629c0.31155 1.17e-4 1.454 5.46e-4 1.7136 6.43e-4" fill="none" stroke="#595959" stroke-width="1.5"/>
<path d="m154.46 25.629-3.9e-4 -1.0245" fill="none" stroke="#595959" stroke-width="1.5"/>
<path d="m155.14 24.605-0.68541-2.57e-4" fill="none" stroke="#595959" stroke-width="1.5"/>
<path d="m155.14 24.605 1.3e-4 0.34147" fill="none" stroke="#595959" stroke-width="1.5"/>
<path d="m154.8 24.946 0.34268 1.28e-4" fill="none" stroke="#595959" stroke-width="1.5"/>
<path d="m76.869 31.483c-0.27885-0.1399-1.3465-0.67554-1.6014-0.80346" fill="none" stroke="#595959" stroke-width="1.5"/>
<path d="m64.73 35.023c1.5253-4.0006 6.6192-6.0986 10.538-4.3439" fill="none" stroke="#595959" stroke-width="1.5"/>
<path d="m67.431 41.514c-2.481-0.94121-3.7875-4.0785-2.7015-6.4914" fill="none" stroke="#595959" stroke-width="1.5"/>
<path d="m71.457 39.855c-0.58268 1.5283-2.5287 2.3298-4.0256 1.6595" fill="none" stroke="#595959" stroke-width="1.5"/>
<path d="m71.457 39.855c-0.34382-0.82617-0.68765-1.6523-1.0315-2.4785" fill="none" stroke="#595959" stroke-width="1.5"/>
<path d="m68.886 38.011c0.28829-0.11884 1.3144-0.54184 1.5392-0.6345" fill="none" stroke="#595959" stroke-width="1.5"/>
<path d="m68.886 38.011 0.39294 0.94419" fill="none" stroke="#595959" stroke-width="1.5"/>
<path d="m69.871 38.711-0.59199 0.24404" fill="none" stroke="#595959" stroke-width="1.5"/>
<path d="m69.871 38.711-0.14735-0.35406" fill="none" stroke="#595959" stroke-width="1.5"/>
<path d="m69.487 38.455 0.23679-0.09761" fill="none" stroke="#595959" stroke-width="1.5"/>
<path d="m69.487 38.455 0.04911 0.11801" fill="none" stroke="#595959" stroke-width="1.5"/>
<path d="m69.655 38.524-0.11839 0.0488" fill="none" stroke="#595959" stroke-width="1.5"/>
<path d="m64.73 35.024c-1.3855 3.6332-6.0086 5.5402-9.5637 3.9483" fill="none" stroke="#595959" stroke-width="1.5"/>
<path d="m52.717 33.078c-0.98659 2.1917 0.19818 5.0403 2.4494 5.8942" fill="none" stroke="#595959" stroke-width="1.5"/>
<path d="m56.37 31.57c-0.61528 0.23571-3.0505 1.2411-3.6528 1.508" fill="none" stroke="#595959" stroke-width="1.5"/>
<path d="m57.305 33.821c-0.31191-0.75058-0.62381-1.5012-0.93572-2.2517" fill="none" stroke="#595959" stroke-width="1.5"/>
<path d="m57.305 33.821c-0.28824 0.119-1.218 0.50286-1.3947 0.57579" fill="none" stroke="#595959" stroke-width="1.5"/>
<path d="m55.553 33.536 0.35777 0.86095" fill="none" stroke="#595959" stroke-width="1.5"/>
<path d="m55.553 33.536 0.53131-0.21935" fill="none" stroke="#595959" stroke-width="1.5"/>
<path d="m56.222 33.648-0.1376-0.33113" fill="none" stroke="#595959" stroke-width="1.5"/>
<path d="m56.222 33.648-0.19924 0.08225" fill="none" stroke="#595959" stroke-width="1.5"/>
<path d="m55.968 33.598 0.05504 0.13245" fill="none" stroke="#595959" stroke-width="1.5"/>
<path d="m55.968 33.598 0.06641-0.02741" fill="none" stroke="#595959" stroke-width="1.5"/>
<path d="m56.061 33.637-0.02752-0.06622" fill="none" stroke="#595959" stroke-width="1.5"/>
<path d="m124.11 46.002c-4.3606-11.503-19.132-17.592-30.364-12.539" fill="none" stroke="#595959" stroke-width="1.5"/>
<path d="m85.977 52.156c-3.1424-6.9281 0.63713-16.01 7.7662-18.692" fill="none" stroke="#595959" stroke-width="1.5"/>
<path d="m97.574 56.945c-4.3093 1.9267-9.9152-0.38671-11.597-4.789" fill="none" stroke="#595959" stroke-width="1.5"/>
<path d="m100.54 49.804c1.1976 2.6564-0.23744 6.1074-2.9668 7.1409" fill="none" stroke="#595959" stroke-width="1.5"/>
<path d="m100.54 49.804c-0.64214-1.681-2.7827-2.5641-4.428-1.8285" fill="none" stroke="#595959" stroke-width="1.5"/>
<path d="m94.979 50.706c0.37812-0.91011 0.75625-1.8202 1.1344-2.7303" fill="none" stroke="#595959" stroke-width="1.5"/>
<path d="m94.979 50.706c0.2884 0.1191 1.413 0.58348 1.6868 0.69657" fill="none" stroke="#595959" stroke-width="1.5"/>
<path d="m97.102 50.353c-0.11935 0.28727-0.41021 0.98734-0.43629 1.0501" fill="none" stroke="#595959" stroke-width="1.5"/>
<path d="m97.102 50.353-0.63255-0.26121" fill="none" stroke="#595959" stroke-width="1.5"/>
<path d="m96.295 50.512 0.17451-0.42003" fill="none" stroke="#595959" stroke-width="1.5"/>
<path d="m96.295 50.512 0.21083 0.08706" fill="none" stroke="#595959" stroke-width="1.5"/>
<path d="m96.592 50.388-0.08725 0.21" fill="none" stroke="#595959" stroke-width="1.5"/>
<path d="m117.39 36.989c-1.9598-1.734-3.5179-3.9156-4.5193-6.3288" fill="none" stroke="#595959" stroke-width="1.5"/>
<path d="m118.69 16.651c-5.3465 2.0107-8.1695 8.8202-5.8172 14.009" fill="none" stroke="#595959" stroke-width="1.5"/>
<path d="m127.38 20.242c-1.2596-3.2981-5.4594-5.0345-8.6899-3.5905" fill="none" stroke="#595959" stroke-width="1.5"/>
<path d="m125.16 25.593c2.0461-0.77476 3.1194-3.3618 2.2223-5.3517" fill="none" stroke="#595959" stroke-width="1.5"/>
<path d="m125.16 25.593c-1.106-0.45697-2.212-0.91394-3.318-1.3709" fill="none" stroke="#595959" stroke-width="1.5"/>
<path d="m122.69 22.176c-0.28324 0.68207-0.56647 1.3641-0.8497 2.0462" fill="none" stroke="#595959" stroke-width="1.5"/>
<path d="m122.69 22.176c0.28838 0.11915 1.131 0.46732 1.264 0.52225" fill="none" stroke="#595959" stroke-width="1.5"/>
<path d="m123.63 23.486 0.3268-0.78699" fill="none" stroke="#595959" stroke-width="1.5"/>
<path d="m123.63 23.486-0.47397-0.19584" fill="none" stroke="#595959" stroke-width="1.5"/>
<path d="m123.29 22.975-0.13071 0.31478" fill="none" stroke="#595959" stroke-width="1.5"/>
<path d="m123.29 22.975 0.15798 0.06527" fill="none" stroke="#595959" stroke-width="1.5"/>
<path d="m123.38 23.198 0.0654-0.15738" fill="none" stroke="#595959" stroke-width="1.5"/>
<path d="m118.69 16.652c4.8558-1.8262 7.4215-8.0061 5.2872-12.713" fill="none" stroke="#595959" stroke-width="1.5"/>
<path d="m116.09 0.68277c2.9344-1.3117 6.748 0.26299 7.891 3.2554" fill="none" stroke="#595959" stroke-width="1.5"/>
<path d="m114.07 5.5385c-0.81397-1.8049 0.16156-4.1522 2.0194-4.8558" fill="none" stroke="#595959" stroke-width="1.5"/>
<path d="m117.08 6.7822c-1.0048-0.41455-2.0097-0.8291-3.0145-1.2436" fill="none" stroke="#595959" stroke-width="1.5"/>
<path d="m117.08 6.7822c0.25702-0.61801 0.51403-1.236 0.77105-1.854" fill="none" stroke="#595959" stroke-width="1.5"/>
<path d="m116.7 4.4527c0.28844 0.119 1.0568 0.436 1.1526 0.47551" fill="none" stroke="#595959" stroke-width="1.5"/>
<path d="m116.7 4.4527-0.29373 0.70629" fill="none" stroke="#595959" stroke-width="1.5"/>
<path d="m116.85 5.3418-0.4433-0.18288" fill="none" stroke="#595959" stroke-width="1.5"/>
<path d="m116.85 5.3418 0.11015-0.26485" fill="none" stroke="#595959" stroke-width="1.5"/>
<path d="m116.79 5.0038 0.17731 0.073151" fill="none" stroke="#595959" stroke-width="1.5"/>
<path d="m116.79 5.0038-0.0367 0.088275" fill="none" stroke="#595959" stroke-width="1.5"/>
<path d="m116.84 5.1285-0.0887-0.036573" fill="none" stroke="#595959" stroke-width="1.5"/>
<path d="m93.743 33.464c-8.4297 3.7913-19.487-0.78468-22.759-9.4027" fill="none" stroke="#595959" stroke-width="1.5"/>
<path d="m76.803 10.048c-5.3481 2.0113-8.1719 8.8229-5.8189 14.013" fill="none" stroke="#595959" stroke-width="1.5"/>
<path d="m85.496 13.639c-1.2601-3.299-5.4612-5.0358-8.6926-3.5913" fill="none" stroke="#595959" stroke-width="1.5"/>
<path d="m83.273 18.993c2.0467-0.77502 3.1204-3.3628 2.223-5.3532" fill="none" stroke="#595959" stroke-width="1.5"/>
<path d="m83.273 18.993c-1.1063-0.45708-2.2127-0.91415-3.319-1.3712" fill="none" stroke="#595959" stroke-width="1.5"/>
<path d="m80.804 15.575c-0.28332 0.68227-0.56663 1.3645-0.84995 2.0468" fill="none" stroke="#595959" stroke-width="1.5"/>
<path d="m80.804 15.575c0.28838 0.11914 1.1313 0.46739 1.2644 0.52237" fill="none" stroke="#595959" stroke-width="1.5"/>
<path d="m81.741 16.884 0.3269-0.78722" fill="none" stroke="#595959" stroke-width="1.5"/>
<path d="m81.741 16.884-0.47412-0.19588" fill="none" stroke="#595959" stroke-width="1.5"/>
<path d="m81.398 16.373-0.13075 0.31488" fill="none" stroke="#595959" stroke-width="1.5"/>
<path d="m81.398 16.373 0.15803 0.06529" fill="none" stroke="#595959" stroke-width="1.5"/>
<path d="m81.49 16.596 0.06537-0.15743" fill="none" stroke="#595959" stroke-width="1.5"/>
</svg>
