<?xml version="1.0" encoding="UTF-8"?>
<svg version="1.0" width="228" height="268" viewBox="0 0 228.29 268.41" xmlns="http://www.w3.org/2000/svg" xmlns:cc="http://creativecommons.org/ns#" xmlns:dc="http://purl.org/dc/elements/1.1/" xmlns:rdf="http://www.w3.org/1999/02/22-rdf-syntax-ns#">
<path d="m228.11 118.48a38.407 38.553 0 0 1 -17.745 -32.499" fill="none" stroke="#595959" stroke-width="1.2"/>
<g transform="matrix(-.15248 0 0 -.15306 229.24 105.84)" stroke="#595959" stroke-width="7.8551">
<path d="m18.898 563.15a543.94 543.75 0 0 1 543.94 -543.75" fill="none"/>
<path transform="scale(-1,1)" d="m-899.03 355.47a336.19 336.07 0 0 1 336.19 -336.07" fill="none"/>
<path transform="matrix(0,-1,-1,0,0,0)" d="m-563.15-691.27a207.68 207.76 0 0 1 207.68 -207.76" fill="none"/>
<path transform="scale(1,-1)" d="m562.84-434.76a128.43 128.39 0 0 1 128.43 -128.39" fill="none"/>
<path d="m562.84 434.76a79.325 79.297 0 0 1 79.325 -79.297" fill="none"/>
<path transform="scale(-1,1)" d="m-691.27 404.55a49.105 49.088 0 0 1 49.105 -49.088" fill="none"/>
<path transform="scale(-1)" d="m-691.27-404.55a30.219 30.208 0 0 1 30.219 -30.208" fill="none"/>
<path transform="scale(1,-1)" d="m642.17-415.88a18.886 18.88 0 0 1 18.886 -18.88" fill="none"/>
<path d="m642.17 415.88a11.332 11.328 0 0 1 11.332 -11.328" fill="none"/>
<path transform="scale(-1,1)" d="m-661.05 412.11a7.5543 7.5516 0 0 1 7.5543 -7.5516" fill="none"/>
<path transform="scale(-1)" d="m-661.05-412.11a3.7769 3.7756 0 0 1 3.7769 -3.7756" fill="none"/>
<path transform="scale(1,-1)" d="m653.51-412.1a3.7769 3.7756 0 0 1 3.7769 -3.7756" fill="none"/>
</g>
<path d="m216.59 58.775c-4.0566 8.4019-6.2219 17.692-6.2219 27.206" fill="none" stroke="#595959" stroke-width="1.2"/>
<g transform="matrix(0 .11471 .11432 0 79.04 100.71)" stroke="#595959" stroke-width="10.479">
<path d="m18.898 563.15a543.94 543.75 0 0 1 543.94 -543.75" fill="none"/>
<path transform="scale(-1,1)" d="m-899.03 355.47a336.19 336.07 0 0 1 336.19 -336.07" fill="none"/>
<path transform="matrix(0,-1,-1,0,0,0)" d="m-563.15-691.27a207.68 207.76 0 0 1 207.68 -207.76" fill="none"/>
<path transform="scale(1,-1)" d="m562.84-434.76a128.43 128.39 0 0 1 128.43 -128.39" fill="none"/>
<path d="m562.84 434.76a79.325 79.297 0 0 1 79.325 -79.297" fill="none"/>
<path transform="scale(-1,1)" d="m-691.27 404.55a49.105 49.088 0 0 1 49.105 -49.088" fill="none"/>
<path transform="scale(-1)" d="m-691.27-404.55a30.219 30.208 0 0 1 30.219 -30.208" fill="none"/>
<path transform="scale(1,-1)" d="m642.17-415.88a18.886 18.88 0 0 1 18.886 -18.88" fill="none"/>
<path d="m642.17 415.88a11.332 11.328 0 0 1 11.332 -11.328" fill="none"/>
<path transform="scale(-1,1)" d="m-661.05 412.11a7.5543 7.5516 0 0 1 7.5543 -7.5516" fill="none"/>
<path transform="scale(-1)" d="m-661.05-412.11a3.7769 3.7756 0 0 1 3.7769 -3.7756" fill="none"/>
<path transform="scale(1,-1)" d="m653.51-412.1a3.7769 3.7756 0 0 1 3.7769 -3.7756" fill="none"/>
</g>
<g transform="matrix(.029544 -.012294 .012239 .029684 192.06 128.94)" stroke="#595959" stroke-width="37.437">
<g transform="matrix(-.22272 .22272 .22297 .22297 -347.89 234.99)" stroke="#595959" stroke-width="118.79">
<g transform="matrix(1.7834 0 0 -1.7814 -1584.4 1196.4)" stroke-width="66.647">
<path d="m488.35 24.876c24.327-3.5757 48.975-5.4122 74.488-5.4774" fill="none"/>
<path transform="scale(-1,1)" d="m-899.03 355.47a336.19 336.07 0 0 1 336.19 -336.07" fill="none"/>
<path transform="matrix(0,-1,-1,0,0,0)" d="m-563.15-691.27a207.68 207.76 0 0 1 207.68 -207.76" fill="none"/>
<path transform="scale(1,-1)" d="m562.84-434.76a128.43 128.39 0 0 1 128.43 -128.39" fill="none"/>
<path d="m562.84 434.76a79.325 79.297 0 0 1 79.325 -79.297" fill="none"/>
<path transform="scale(-1,1)" d="m-691.27 404.55a49.105 49.088 0 0 1 49.105 -49.088" fill="none"/>
<path transform="scale(-1)" d="m-691.27-404.55a30.219 30.208 0 0 1 30.219 -30.208" fill="none"/>
<path transform="scale(1,-1)" d="m642.17-415.88a18.886 18.88 0 0 1 18.886 -18.88" fill="none"/>
<path d="m642.17 415.88a11.332 11.328 0 0 1 11.332 -11.328" fill="none"/>
<path transform="scale(-1,1)" d="m-661.05 412.11a7.5543 7.5516 0 0 1 7.5543 -7.5516" fill="none"/>
<path transform="scale(-1)" d="m-661.05-412.11a3.7769 3.7756 0 0 1 3.7769 -3.7756" fill="none"/>
<path transform="scale(1,-1)" d="m653.51-412.1a3.7769 3.7756 0 0 1 3.7769 -3.7756" fill="none"/>
</g>
<path d="m18.898 563.15a543.94 543.75 0 0 1 543.94 -543.75" fill="none" stroke-width="118.79"/>
<path transform="scale(-1,1)" d="m-899.03 355.47a336.19 336.07 0 0 1 336.19 -336.07" fill="none"/>
<path transform="matrix(0,-1,-1,0,0,0)" d="m-563.15-691.27a207.68 207.76 0 0 1 207.68 -207.76" fill="none"/>
<path transform="scale(1,-1)" d="m562.84-434.76a128.43 128.39 0 0 1 128.43 -128.39" fill="none"/>
<path d="m562.84 434.76a79.325 79.297 0 0 1 79.325 -79.297" fill="none"/>
<path transform="scale(-1,1)" d="m-691.27 404.55a49.105 49.088 0 0 1 49.105 -49.088" fill="none"/>
<path transform="scale(-1)" d="m-691.27-404.55a30.219 30.208 0 0 1 30.219 -30.208" fill="none"/>
<path transform="scale(1,-1)" d="m642.17-415.88a18.886 18.88 0 0 1 18.886 -18.88" fill="none"/>
<path d="m642.17 415.88a11.332 11.328 0 0 1 11.332 -11.328" fill="none"/>
<path transform="scale(-1,1)" d="m-661.05 412.11a7.5543 7.5516 0 0 1 7.5543 -7.5516" fill="none"/>
<path transform="scale(-1)" d="m-661.05-412.11a3.7769 3.7756 0 0 1 3.7769 -3.7756" fill="none"/>
<path transform="scale(1,-1)" d="m653.51-412.1a3.7769 3.7756 0 0 1 3.7769 -3.7756" fill="none"/>
</g>
</g>
<g transform="matrix(-.029544 .012294 -.012239 -.029684 222.89 121.62)" stroke="#595959" stroke-width="37.437">
<path d="m18.898 563.15a543.94 543.75 0 0 1 543.94 -543.75" fill="none"/>
<path transform="scale(-1,1)" d="m-899.03 355.47a336.19 336.07 0 0 1 336.19 -336.07" fill="none"/>
<path transform="matrix(0,-1,-1,0,0,0)" d="m-563.15-691.27a207.68 207.76 0 0 1 207.68 -207.76" fill="none"/>
<path transform="scale(1,-1)" d="m562.84-434.76a128.43 128.39 0 0 1 128.43 -128.39" fill="none"/>
<path d="m562.84 434.76a79.325 79.297 0 0 1 79.325 -79.297" fill="none"/>
<path transform="scale(-1,1)" d="m-691.27 404.55a49.105 49.088 0 0 1 49.105 -49.088" fill="none"/>
<path transform="scale(-1)" d="m-691.27-404.55a30.219 30.208 0 0 1 30.219 -30.208" fill="none"/>
<path transform="scale(1,-1)" d="m642.17-415.88a18.886 18.88 0 0 1 18.886 -18.88" fill="none"/>
<path d="m642.17 415.88a11.332 11.328 0 0 1 11.332 -11.328" fill="none"/>
<path transform="scale(-1,1)" d="m-661.05 412.11a7.5543 7.5516 0 0 1 7.5543 -7.5516" fill="none"/>
<path transform="scale(-1)" d="m-661.05-412.11a3.7769 3.7756 0 0 1 3.7769 -3.7756" fill="none"/>
<path transform="scale(1,-1)" d="m653.51-412.1a3.7769 3.7756 0 0 1 3.7769 -3.7756" fill="none"/>
</g>
<g transform="matrix(.0091703 .02224 .022143 -.0092141 212.05 106.95)" stroke="#595959" stroke-width="49.958">
<path d="m325.6 73.841c73.267-35.497 154.28-54.443 237.24-54.443" fill="none"/>
<path transform="scale(-1,1)" d="m-899.03 355.47a336.19 336.07 0 0 1 336.19 -336.07" fill="none"/>
</g>
<g transform="matrix(.0091731 .022247 .02215 -.0092167 193.37 132.73)" stroke="#595959" stroke-width="49.943">
<path d="m18.898 563.15a543.94 543.75 0 0 1 543.94 -543.75" fill="none"/>
<path transform="scale(-1,1)" d="m-899.03 355.47a336.19 336.07 0 0 1 336.19 -336.07" fill="none"/>
<path transform="matrix(0,-1,-1,0,0,0)" d="m-563.15-691.27a207.68 207.76 0 0 1 207.68 -207.76" fill="none"/>
<path transform="scale(1,-1)" d="m562.84-434.76a128.43 128.39 0 0 1 128.43 -128.39" fill="none"/>
<path d="m562.84 434.76a79.325 79.297 0 0 1 79.325 -79.297" fill="none"/>
<path transform="scale(-1,1)" d="m-691.27 404.55a49.105 49.088 0 0 1 49.105 -49.088" fill="none"/>
<path transform="scale(-1)" d="m-691.27-404.55a30.219 30.208 0 0 1 30.219 -30.208" fill="none"/>
<path transform="scale(1,-1)" d="m642.17-415.88a18.886 18.88 0 0 1 18.886 -18.88" fill="none"/>
<path d="m642.17 415.88a11.332 11.328 0 0 1 11.332 -11.328" fill="none"/>
<path transform="scale(-1,1)" d="m-661.05 412.11a7.5543 7.5516 0 0 1 7.5543 -7.5516" fill="none"/>
<path transform="scale(-1)" d="m-661.05-412.11a3.7769 3.7756 0 0 1 3.7769 -3.7756" fill="none"/>
<path transform="scale(1,-1)" d="m653.51-412.1a3.7769 3.7756 0 0 1 3.7769 -3.7756" fill="none"/>
</g>
<g transform="matrix(.031982 -8.8328e-6 -8.7992e-6 .032126 50.429 179.28)" stroke="#595959" stroke-width="37.437">
<g transform="translate(4.9234 -.50728)" stroke-width="37.437">
<g transform="matrix(-.22272 .22272 .22297 .22297 -347.89 234.99)" stroke="#595959" stroke-width="118.79">
<g transform="matrix(1.7834 0 0 -1.7814 -1584.4 1196.4)" stroke-width="66.647">
<path d="m488.35 24.876c24.327-3.5757 48.975-5.4122 74.488-5.4774" fill="none"/>
<path transform="scale(-1,1)" d="m-899.03 355.47a336.19 336.07 0 0 1 336.19 -336.07" fill="none"/>
<path transform="matrix(0,-1,-1,0,0,0)" d="m-563.15-691.27a207.68 207.76 0 0 1 207.68 -207.76" fill="none"/>
<path transform="scale(1,-1)" d="m562.84-434.76a128.43 128.39 0 0 1 128.43 -128.39" fill="none"/>
<path d="m562.84 434.76a79.325 79.297 0 0 1 79.325 -79.297" fill="none"/>
<path transform="scale(-1,1)" d="m-691.27 404.55a49.105 49.088 0 0 1 49.105 -49.088" fill="none"/>
<path transform="scale(-1)" d="m-691.27-404.55a30.219 30.208 0 0 1 30.219 -30.208" fill="none"/>
<path transform="scale(1,-1)" d="m642.17-415.88a18.886 18.88 0 0 1 18.886 -18.88" fill="none"/>
<path d="m642.17 415.88a11.332 11.328 0 0 1 11.332 -11.328" fill="none"/>
<path transform="scale(-1,1)" d="m-661.05 412.11a7.5543 7.5516 0 0 1 7.5543 -7.5516" fill="none"/>
<path transform="scale(-1)" d="m-661.05-412.11a3.7769 3.7756 0 0 1 3.7769 -3.7756" fill="none"/>
<path transform="scale(1,-1)" d="m653.51-412.1a3.7769 3.7756 0 0 1 3.7769 -3.7756" fill="none"/>
</g>
<path d="m18.898 563.15a543.94 543.75 0 0 1 543.94 -543.75" fill="none" stroke-width="118.79"/>
<path transform="scale(-1,1)" d="m-899.03 355.47a336.19 336.07 0 0 1 336.19 -336.07" fill="none"/>
<path transform="matrix(0,-1,-1,0,0,0)" d="m-563.15-691.27a207.68 207.76 0 0 1 207.68 -207.76" fill="none"/>
<path transform="scale(1,-1)" d="m562.84-434.76a128.43 128.39 0 0 1 128.43 -128.39" fill="none"/>
<path d="m562.84 434.76a79.325 79.297 0 0 1 79.325 -79.297" fill="none"/>
<path transform="scale(-1,1)" d="m-691.27 404.55a49.105 49.088 0 0 1 49.105 -49.088" fill="none"/>
<path transform="scale(-1)" d="m-691.27-404.55a30.219 30.208 0 0 1 30.219 -30.208" fill="none"/>
<path transform="scale(1,-1)" d="m642.17-415.88a18.886 18.88 0 0 1 18.886 -18.88" fill="none"/>
<path d="m642.17 415.88a11.332 11.328 0 0 1 11.332 -11.328" fill="none"/>
<path transform="scale(-1,1)" d="m-661.05 412.11a7.5543 7.5516 0 0 1 7.5543 -7.5516" fill="none"/>
<path transform="scale(-1)" d="m-661.05-412.11a3.7769 3.7756 0 0 1 3.7769 -3.7756" fill="none"/>
<path transform="scale(1,-1)" d="m653.51-412.1a3.7769 3.7756 0 0 1 3.7769 -3.7756" fill="none"/>
</g>
</g>
<g>
<g transform="rotate(180 491.41 78.931)" stroke-width="37.437">
<path d="m18.898 563.15a543.94 543.75 0 0 1 543.94 -543.75" fill="none"/>
<path transform="scale(-1,1)" d="m-899.03 355.47a336.19 336.07 0 0 1 336.19 -336.07" fill="none"/>
<path transform="matrix(0,-1,-1,0,0,0)" d="m-563.15-691.27a207.68 207.76 0 0 1 207.68 -207.76" fill="none"/>
<path transform="scale(1,-1)" d="m562.84-434.76a128.43 128.39 0 0 1 128.43 -128.39" fill="none"/>
<path d="m562.84 434.76a79.325 79.297 0 0 1 79.325 -79.297" fill="none"/>
<path transform="scale(-1,1)" d="m-691.27 404.55a49.105 49.088 0 0 1 49.105 -49.088" fill="none"/>
<path transform="scale(-1)" d="m-691.27-404.55a30.219 30.208 0 0 1 30.219 -30.208" fill="none"/>
<path transform="scale(1,-1)" d="m642.17-415.88a18.886 18.88 0 0 1 18.886 -18.88" fill="none"/>
<path d="m642.17 415.88a11.332 11.328 0 0 1 11.332 -11.328" fill="none"/>
<path transform="scale(-1,1)" d="m-661.05 412.11a7.5543 7.5516 0 0 1 7.5543 -7.5516" fill="none"/>
<path transform="scale(-1)" d="m-661.05-412.11a3.7769 3.7756 0 0 1 3.7769 -3.7756" fill="none"/>
<path transform="scale(1,-1)" d="m653.51-412.1a3.7769 3.7756 0 0 1 3.7769 -3.7756" fill="none"/>
</g>
<g transform="matrix(0 .74924 .7495 0 844.5 -393.62)" stroke-width="49.958">
<path d="m325.6 73.841c73.267-35.497 154.28-54.443 237.24-54.443" fill="none"/>
<path transform="scale(-1,1)" d="m-899.03 355.47a336.19 336.07 0 0 1 336.19 -336.07" fill="none"/>
<path transform="matrix(0,-1,-1,0,0,0)" d="m-563.15-691.27a207.68 207.76 0 0 1 207.68 -207.76" fill="none"/>
<path transform="scale(1,-1)" d="m562.84-434.76a128.43 128.39 0 0 1 128.43 -128.39" fill="none"/>
<path d="m562.84 434.76a79.325 79.297 0 0 1 79.325 -79.297" fill="none"/>
<path transform="scale(-1,1)" d="m-691.27 404.55a49.105 49.088 0 0 1 49.105 -49.088" fill="none"/>
<path transform="scale(-1)" d="m-691.27-404.55a30.219 30.208 0 0 1 30.219 -30.208" fill="none"/>
<path transform="scale(1,-1)" d="m642.17-415.88a18.886 18.88 0 0 1 18.886 -18.88" fill="none"/>
<path d="m642.17 415.88a11.332 11.328 0 0 1 11.332 -11.328" fill="none"/>
<path transform="scale(-1,1)" d="m-661.05 412.11a7.5543 7.5516 0 0 1 7.5543 -7.5516" fill="none"/>
<path transform="scale(-1)" d="m-661.05-412.11a3.7769 3.7756 0 0 1 3.7769 -3.7756" fill="none"/>
<path transform="scale(1,-1)" d="m653.51-412.1a3.7769 3.7756 0 0 1 3.7769 -3.7756" fill="none"/>
</g>
<g transform="matrix(0 .42012 -.42073 0 1347.9 272.03)" stroke-width="89.046">
<path d="m18.898 563.15a543.94 543.75 0 0 1 543.94 -543.75" fill="none"/>
<path transform="scale(-1,1)" d="m-899.03 355.47a336.19 336.07 0 0 1 336.19 -336.07" fill="none"/>
<path transform="matrix(0,-1,-1,0,0,0)" d="m-563.15-691.27a207.68 207.76 0 0 1 207.68 -207.76" fill="none"/>
<path transform="scale(1,-1)" d="m562.84-434.76a128.43 128.39 0 0 1 128.43 -128.39" fill="none"/>
<path d="m562.84 434.76a79.325 79.297 0 0 1 79.325 -79.297" fill="none"/>
<path transform="scale(-1,1)" d="m-691.27 404.55a49.105 49.088 0 0 1 49.105 -49.088" fill="none"/>
<path transform="scale(-1)" d="m-691.27-404.55a30.219 30.208 0 0 1 30.219 -30.208" fill="none"/>
<path transform="scale(1,-1)" d="m642.17-415.88a18.886 18.88 0 0 1 18.886 -18.88" fill="none"/>
<path d="m642.17 415.88a11.332 11.328 0 0 1 11.332 -11.328" fill="none"/>
<path transform="scale(-1,1)" d="m-661.05 412.11a7.5543 7.5516 0 0 1 7.5543 -7.5516" fill="none"/>
<path transform="scale(-1)" d="m-661.05-412.11a3.7769 3.7756 0 0 1 3.7769 -3.7756" fill="none"/>
<path transform="scale(1,-1)" d="m653.51-412.1a3.7769 3.7756 0 0 1 3.7769 -3.7756" fill="none"/>
</g>
</g>
<g transform="matrix(0 .74947 .74972 0 -2.2282 124.3)" stroke-width="49.943">
<path d="m18.898 563.15a543.94 543.75 0 0 1 543.94 -543.75" fill="none"/>
<path transform="scale(-1,1)" d="m-899.03 355.47a336.19 336.07 0 0 1 336.19 -336.07" fill="none"/>
<path transform="matrix(0,-1,-1,0,0,0)" d="m-563.15-691.27a207.68 207.76 0 0 1 207.68 -207.76" fill="none"/>
<path transform="scale(1,-1)" d="m562.84-434.76a128.43 128.39 0 0 1 128.43 -128.39" fill="none"/>
<path d="m562.84 434.76a79.325 79.297 0 0 1 79.325 -79.297" fill="none"/>
<path transform="scale(-1,1)" d="m-691.27 404.55a49.105 49.088 0 0 1 49.105 -49.088" fill="none"/>
<path transform="scale(-1)" d="m-691.27-404.55a30.219 30.208 0 0 1 30.219 -30.208" fill="none"/>
<path transform="scale(1,-1)" d="m642.17-415.88a18.886 18.88 0 0 1 18.886 -18.88" fill="none"/>
<path d="m642.17 415.88a11.332 11.328 0 0 1 11.332 -11.328" fill="none"/>
<path transform="scale(-1,1)" d="m-661.05 412.11a7.5543 7.5516 0 0 1 7.5543 -7.5516" fill="none"/>
<path transform="scale(-1)" d="m-661.05-412.11a3.7769 3.7756 0 0 1 3.7769 -3.7756" fill="none"/>
<path transform="scale(1,-1)" d="m653.51-412.1a3.7769 3.7756 0 0 1 3.7769 -3.7756" fill="none"/>
</g>
</g>
<g transform="matrix(.15248 0 0 .15306 -39.953 -115.05)" stroke="#595959">
<g transform="translate(787.55 1284.9)" stroke-width="7.8551">
<g transform="matrix(-.22272 .22272 .22297 .22297 -347.89 234.99)" stroke="#595959" stroke-width="24.925">
<g transform="matrix(1.7834 0 0 -1.7814 -1584.4 1196.4)" stroke-width="13.984">
<path d="m488.35 24.876c24.327-3.5757 48.975-5.4122 74.488-5.4774" fill="none"/>
<path transform="scale(-1,1)" d="m-899.03 355.47a336.19 336.07 0 0 1 336.19 -336.07" fill="none"/>
<path transform="matrix(0,-1,-1,0,0,0)" d="m-563.15-691.27a207.68 207.76 0 0 1 207.68 -207.76" fill="none"/>
<path transform="scale(1,-1)" d="m562.84-434.76a128.43 128.39 0 0 1 128.43 -128.39" fill="none"/>
<path d="m562.84 434.76a79.325 79.297 0 0 1 79.325 -79.297" fill="none"/>
<path transform="scale(-1,1)" d="m-691.27 404.55a49.105 49.088 0 0 1 49.105 -49.088" fill="none"/>
<path transform="scale(-1)" d="m-691.27-404.55a30.219 30.208 0 0 1 30.219 -30.208" fill="none"/>
<path transform="scale(1,-1)" d="m642.17-415.88a18.886 18.88 0 0 1 18.886 -18.88" fill="none"/>
<path d="m642.17 415.88a11.332 11.328 0 0 1 11.332 -11.328" fill="none"/>
<path transform="scale(-1,1)" d="m-661.05 412.11a7.5543 7.5516 0 0 1 7.5543 -7.5516" fill="none"/>
<path transform="scale(-1)" d="m-661.05-412.11a3.7769 3.7756 0 0 1 3.7769 -3.7756" fill="none"/>
<path transform="scale(1,-1)" d="m653.51-412.1a3.7769 3.7756 0 0 1 3.7769 -3.7756" fill="none"/>
</g>
<path d="m18.898 563.15a543.94 543.75 0 0 1 543.94 -543.75" fill="none" stroke-width="24.925"/>
<path transform="scale(-1,1)" d="m-899.03 355.47a336.19 336.07 0 0 1 336.19 -336.07" fill="none"/>
<path transform="matrix(0,-1,-1,0,0,0)" d="m-563.15-691.27a207.68 207.76 0 0 1 207.68 -207.76" fill="none"/>
<path transform="scale(1,-1)" d="m562.84-434.76a128.43 128.39 0 0 1 128.43 -128.39" fill="none"/>
<path d="m562.84 434.76a79.325 79.297 0 0 1 79.325 -79.297" fill="none"/>
<path transform="scale(-1,1)" d="m-691.27 404.55a49.105 49.088 0 0 1 49.105 -49.088" fill="none"/>
<path transform="scale(-1)" d="m-691.27-404.55a30.219 30.208 0 0 1 30.219 -30.208" fill="none"/>
<path transform="scale(1,-1)" d="m642.17-415.88a18.886 18.88 0 0 1 18.886 -18.88" fill="none"/>
<path d="m642.17 415.88a11.332 11.328 0 0 1 11.332 -11.328" fill="none"/>
<path transform="scale(-1,1)" d="m-661.05 412.11a7.5543 7.5516 0 0 1 7.5543 -7.5516" fill="none"/>
<path transform="scale(-1)" d="m-661.05-412.11a3.7769 3.7756 0 0 1 3.7769 -3.7756" fill="none"/>
<path transform="scale(1,-1)" d="m653.51-412.1a3.7769 3.7756 0 0 1 3.7769 -3.7756" fill="none"/>
</g>
</g>
<g transform="matrix(-.080214 .1938 -.1939 -.080377 488.51 1387.1)" stroke-width="37.437">
<g transform="translate(4.9234 -.50728)" stroke-width="37.437">
<g transform="matrix(-.22272 .22272 .22297 .22297 -347.89 234.99)" stroke="#595959" stroke-width="118.79">
<g transform="matrix(1.7834 0 0 -1.7814 -1584.4 1196.4)" stroke-width="66.647">
<path d="m488.35 24.876c24.327-3.5757 48.975-5.4122 74.488-5.4774" fill="none"/>
<path transform="scale(-1,1)" d="m-899.03 355.47a336.19 336.07 0 0 1 336.19 -336.07" fill="none"/>
<path transform="matrix(0,-1,-1,0,0,0)" d="m-563.15-691.27a207.68 207.76 0 0 1 207.68 -207.76" fill="none"/>
<path transform="scale(1,-1)" d="m562.84-434.76a128.43 128.39 0 0 1 128.43 -128.39" fill="none"/>
<path d="m562.84 434.76a79.325 79.297 0 0 1 79.325 -79.297" fill="none"/>
<path transform="scale(-1,1)" d="m-691.27 404.55a49.105 49.088 0 0 1 49.105 -49.088" fill="none"/>
<path transform="scale(-1)" d="m-691.27-404.55a30.219 30.208 0 0 1 30.219 -30.208" fill="none"/>
<path transform="scale(1,-1)" d="m642.17-415.88a18.886 18.88 0 0 1 18.886 -18.88" fill="none"/>
<path d="m642.17 415.88a11.332 11.328 0 0 1 11.332 -11.328" fill="none"/>
<path transform="scale(-1,1)" d="m-661.05 412.11a7.5543 7.5516 0 0 1 7.5543 -7.5516" fill="none"/>
<path transform="scale(-1)" d="m-661.05-412.11a3.7769 3.7756 0 0 1 3.7769 -3.7756" fill="none"/>
<path transform="scale(1,-1)" d="m653.51-412.1a3.7769 3.7756 0 0 1 3.7769 -3.7756" fill="none"/>
</g>
<path d="m18.898 563.15a543.94 543.75 0 0 1 543.94 -543.75" fill="none" stroke-width="118.79"/>
<path transform="scale(-1,1)" d="m-899.03 355.47a336.19 336.07 0 0 1 336.19 -336.07" fill="none"/>
<path transform="matrix(0,-1,-1,0,0,0)" d="m-563.15-691.27a207.68 207.76 0 0 1 207.68 -207.76" fill="none"/>
<path transform="scale(1,-1)" d="m562.84-434.76a128.43 128.39 0 0 1 128.43 -128.39" fill="none"/>
<path d="m562.84 434.76a79.325 79.297 0 0 1 79.325 -79.297" fill="none"/>
<path transform="scale(-1,1)" d="m-691.27 404.55a49.105 49.088 0 0 1 49.105 -49.088" fill="none"/>
<path transform="scale(-1)" d="m-691.27-404.55a30.219 30.208 0 0 1 30.219 -30.208" fill="none"/>
<path transform="scale(1,-1)" d="m642.17-415.88a18.886 18.88 0 0 1 18.886 -18.88" fill="none"/>
<path d="m642.17 415.88a11.332 11.328 0 0 1 11.332 -11.328" fill="none"/>
<path transform="scale(-1,1)" d="m-661.05 412.11a7.5543 7.5516 0 0 1 7.5543 -7.5516" fill="none"/>
<path transform="scale(-1)" d="m-661.05-412.11a3.7769 3.7756 0 0 1 3.7769 -3.7756" fill="none"/>
<path transform="scale(1,-1)" d="m653.51-412.1a3.7769 3.7756 0 0 1 3.7769 -3.7756" fill="none"/>
</g>
</g>
<g>
<g transform="rotate(180 491.41 78.931)" stroke-width="37.437">
<path d="m18.898 563.15a543.94 543.75 0 0 1 543.94 -543.75" fill="none"/>
<path transform="scale(-1,1)" d="m-899.03 355.47a336.19 336.07 0 0 1 336.19 -336.07" fill="none"/>
<path transform="matrix(0,-1,-1,0,0,0)" d="m-563.15-691.27a207.68 207.76 0 0 1 207.68 -207.76" fill="none"/>
<path transform="scale(1,-1)" d="m562.84-434.76a128.43 128.39 0 0 1 128.43 -128.39" fill="none"/>
<path d="m562.84 434.76a79.325 79.297 0 0 1 79.325 -79.297" fill="none"/>
<path transform="scale(-1,1)" d="m-691.27 404.55a49.105 49.088 0 0 1 49.105 -49.088" fill="none"/>
<path transform="scale(-1)" d="m-691.27-404.55a30.219 30.208 0 0 1 30.219 -30.208" fill="none"/>
<path transform="scale(1,-1)" d="m642.17-415.88a18.886 18.88 0 0 1 18.886 -18.88" fill="none"/>
<path d="m642.17 415.88a11.332 11.328 0 0 1 11.332 -11.328" fill="none"/>
<path transform="scale(-1,1)" d="m-661.05 412.11a7.5543 7.5516 0 0 1 7.5543 -7.5516" fill="none"/>
<path transform="scale(-1)" d="m-661.05-412.11a3.7769 3.7756 0 0 1 3.7769 -3.7756" fill="none"/>
<path transform="scale(1,-1)" d="m653.51-412.1a3.7769 3.7756 0 0 1 3.7769 -3.7756" fill="none"/>
</g>
<g transform="matrix(0 .74924 .7495 0 844.5 -393.62)" stroke-width="49.958">
<path d="m325.6 73.841c73.267-35.497 154.28-54.443 237.24-54.443" fill="none"/>
<path transform="scale(-1,1)" d="m-899.03 355.47a336.19 336.07 0 0 1 336.19 -336.07" fill="none"/>
<path transform="matrix(0,-1,-1,0,0,0)" d="m-563.15-691.27a207.68 207.76 0 0 1 207.68 -207.76" fill="none"/>
<path transform="scale(1,-1)" d="m562.84-434.76a128.43 128.39 0 0 1 128.43 -128.39" fill="none"/>
<path d="m562.84 434.76a79.325 79.297 0 0 1 79.325 -79.297" fill="none"/>
<path transform="scale(-1,1)" d="m-691.27 404.55a49.105 49.088 0 0 1 49.105 -49.088" fill="none"/>
<path transform="scale(-1)" d="m-691.27-404.55a30.219 30.208 0 0 1 30.219 -30.208" fill="none"/>
<path transform="scale(1,-1)" d="m642.17-415.88a18.886 18.88 0 0 1 18.886 -18.88" fill="none"/>
<path d="m642.17 415.88a11.332 11.328 0 0 1 11.332 -11.328" fill="none"/>
<path transform="scale(-1,1)" d="m-661.05 412.11a7.5543 7.5516 0 0 1 7.5543 -7.5516" fill="none"/>
<path transform="scale(-1)" d="m-661.05-412.11a3.7769 3.7756 0 0 1 3.7769 -3.7756" fill="none"/>
<path transform="scale(1,-1)" d="m653.51-412.1a3.7769 3.7756 0 0 1 3.7769 -3.7756" fill="none"/>
</g>
<g transform="matrix(0 .42012 -.42073 0 1347.9 272.03)" stroke-width="89.046">
<path d="m18.898 563.15a543.94 543.75 0 0 1 543.94 -543.75" fill="none"/>
<path transform="scale(-1,1)" d="m-899.03 355.47a336.19 336.07 0 0 1 336.19 -336.07" fill="none"/>
<path transform="matrix(0,-1,-1,0,0,0)" d="m-563.15-691.27a207.68 207.76 0 0 1 207.68 -207.76" fill="none"/>
<path transform="scale(1,-1)" d="m562.84-434.76a128.43 128.39 0 0 1 128.43 -128.39" fill="none"/>
<path d="m562.84 434.76a79.325 79.297 0 0 1 79.325 -79.297" fill="none"/>
<path transform="scale(-1,1)" d="m-691.27 404.55a49.105 49.088 0 0 1 49.105 -49.088" fill="none"/>
<path transform="scale(-1)" d="m-691.27-404.55a30.219 30.208 0 0 1 30.219 -30.208" fill="none"/>
<path transform="scale(1,-1)" d="m642.17-415.88a18.886 18.88 0 0 1 18.886 -18.88" fill="none"/>
<path d="m642.17 415.88a11.332 11.328 0 0 1 11.332 -11.328" fill="none"/>
<path transform="scale(-1,1)" d="m-661.05 412.11a7.5543 7.5516 0 0 1 7.5543 -7.5516" fill="none"/>
<path transform="scale(-1)" d="m-661.05-412.11a3.7769 3.7756 0 0 1 3.7769 -3.7756" fill="none"/>
<path transform="scale(1,-1)" d="m653.51-412.1a3.7769 3.7756 0 0 1 3.7769 -3.7756" fill="none"/>
</g>
</g>
<g transform="matrix(0 .74947 .74972 0 -2.2282 124.3)" stroke-width="49.943">
<path d="m18.898 563.15a543.94 543.75 0 0 1 543.94 -543.75" fill="none"/>
<path transform="scale(-1,1)" d="m-899.03 355.47a336.19 336.07 0 0 1 336.19 -336.07" fill="none"/>
<path transform="matrix(0,-1,-1,0,0,0)" d="m-563.15-691.27a207.68 207.76 0 0 1 207.68 -207.76" fill="none"/>
<path transform="scale(1,-1)" d="m562.84-434.76a128.43 128.39 0 0 1 128.43 -128.39" fill="none"/>
<path d="m562.84 434.76a79.325 79.297 0 0 1 79.325 -79.297" fill="none"/>
<path transform="scale(-1,1)" d="m-691.27 404.55a49.105 49.088 0 0 1 49.105 -49.088" fill="none"/>
<path transform="scale(-1)" d="m-691.27-404.55a30.219 30.208 0 0 1 30.219 -30.208" fill="none"/>
<path transform="scale(1,-1)" d="m642.17-415.88a18.886 18.88 0 0 1 18.886 -18.88" fill="none"/>
<path d="m642.17 415.88a11.332 11.328 0 0 1 11.332 -11.328" fill="none"/>
<path transform="scale(-1,1)" d="m-661.05 412.11a7.5543 7.5516 0 0 1 7.5543 -7.5516" fill="none"/>
<path transform="scale(-1)" d="m-661.05-412.11a3.7769 3.7756 0 0 1 3.7769 -3.7756" fill="none"/>
<path transform="scale(1,-1)" d="m653.51-412.1a3.7769 3.7756 0 0 1 3.7769 -3.7756" fill="none"/>
</g>
</g>
</g>
<g transform="matrix(-.012231 -.029663 -.029565 .012302 154.86 135.65)" stroke="#595959" stroke-width="37.437">
<g transform="translate(4.9234 -.50728)" stroke-width="37.437">
<g transform="matrix(-.22272 .22272 .22297 .22297 -347.89 234.99)" stroke="#595959" stroke-width="118.79">
<g transform="matrix(1.7834 0 0 -1.7814 -1584.4 1196.4)" stroke-width="66.647">
<path d="m488.35 24.876c24.327-3.5757 48.975-5.4122 74.488-5.4774" fill="none"/>
<path transform="scale(-1,1)" d="m-899.03 355.47a336.19 336.07 0 0 1 336.19 -336.07" fill="none"/>
<path transform="matrix(0,-1,-1,0,0,0)" d="m-563.15-691.27a207.68 207.76 0 0 1 207.68 -207.76" fill="none"/>
<path transform="scale(1,-1)" d="m562.84-434.76a128.43 128.39 0 0 1 128.43 -128.39" fill="none"/>
<path d="m562.84 434.76a79.325 79.297 0 0 1 79.325 -79.297" fill="none"/>
<path transform="scale(-1,1)" d="m-691.27 404.55a49.105 49.088 0 0 1 49.105 -49.088" fill="none"/>
<path transform="scale(-1)" d="m-691.27-404.55a30.219 30.208 0 0 1 30.219 -30.208" fill="none"/>
<path transform="scale(1,-1)" d="m642.17-415.88a18.886 18.88 0 0 1 18.886 -18.88" fill="none"/>
<path d="m642.17 415.88a11.332 11.328 0 0 1 11.332 -11.328" fill="none"/>
<path transform="scale(-1,1)" d="m-661.05 412.11a7.5543 7.5516 0 0 1 7.5543 -7.5516" fill="none"/>
<path transform="scale(-1)" d="m-661.05-412.11a3.7769 3.7756 0 0 1 3.7769 -3.7756" fill="none"/>
<path transform="scale(1,-1)" d="m653.51-412.1a3.7769 3.7756 0 0 1 3.7769 -3.7756" fill="none"/>
</g>
<path d="m18.898 563.15a543.94 543.75 0 0 1 543.94 -543.75" fill="none" stroke-width="118.79"/>
<path transform="scale(-1,1)" d="m-899.03 355.47a336.19 336.07 0 0 1 336.19 -336.07" fill="none"/>
<path transform="matrix(0,-1,-1,0,0,0)" d="m-563.15-691.27a207.68 207.76 0 0 1 207.68 -207.76" fill="none"/>
<path transform="scale(1,-1)" d="m562.84-434.76a128.43 128.39 0 0 1 128.43 -128.39" fill="none"/>
<path d="m562.84 434.76a79.325 79.297 0 0 1 79.325 -79.297" fill="none"/>
<path transform="scale(-1,1)" d="m-691.27 404.55a49.105 49.088 0 0 1 49.105 -49.088" fill="none"/>
<path transform="scale(-1)" d="m-691.27-404.55a30.219 30.208 0 0 1 30.219 -30.208" fill="none"/>
<path transform="scale(1,-1)" d="m642.17-415.88a18.886 18.88 0 0 1 18.886 -18.88" fill="none"/>
<path d="m642.17 415.88a11.332 11.328 0 0 1 11.332 -11.328" fill="none"/>
<path transform="scale(-1,1)" d="m-661.05 412.11a7.5543 7.5516 0 0 1 7.5543 -7.5516" fill="none"/>
<path transform="scale(-1)" d="m-661.05-412.11a3.7769 3.7756 0 0 1 3.7769 -3.7756" fill="none"/>
<path transform="scale(1,-1)" d="m653.51-412.1a3.7769 3.7756 0 0 1 3.7769 -3.7756" fill="none"/>
</g>
</g>
<g>
<g transform="rotate(180 491.41 78.931)" stroke-width="37.437">
<path d="m18.898 563.15a543.94 543.75 0 0 1 543.94 -543.75" fill="none"/>
<path transform="scale(-1,1)" d="m-899.03 355.47a336.19 336.07 0 0 1 336.19 -336.07" fill="none"/>
<path transform="matrix(0,-1,-1,0,0,0)" d="m-563.15-691.27a207.68 207.76 0 0 1 207.68 -207.76" fill="none"/>
<path transform="scale(1,-1)" d="m562.84-434.76a128.43 128.39 0 0 1 128.43 -128.39" fill="none"/>
<path d="m562.84 434.76a79.325 79.297 0 0 1 79.325 -79.297" fill="none"/>
<path transform="scale(-1,1)" d="m-691.27 404.55a49.105 49.088 0 0 1 49.105 -49.088" fill="none"/>
<path transform="scale(-1)" d="m-691.27-404.55a30.219 30.208 0 0 1 30.219 -30.208" fill="none"/>
<path transform="scale(1,-1)" d="m642.17-415.88a18.886 18.88 0 0 1 18.886 -18.88" fill="none"/>
<path d="m642.17 415.88a11.332 11.328 0 0 1 11.332 -11.328" fill="none"/>
<path transform="scale(-1,1)" d="m-661.05 412.11a7.5543 7.5516 0 0 1 7.5543 -7.5516" fill="none"/>
<path transform="scale(-1)" d="m-661.05-412.11a3.7769 3.7756 0 0 1 3.7769 -3.7756" fill="none"/>
<path transform="scale(1,-1)" d="m653.51-412.1a3.7769 3.7756 0 0 1 3.7769 -3.7756" fill="none"/>
</g>
<g transform="matrix(0 .74924 .7495 0 844.5 -393.62)" stroke-width="49.958">
<path d="m325.6 73.841c73.267-35.497 154.28-54.443 237.24-54.443" fill="none"/>
<path transform="scale(-1,1)" d="m-899.03 355.47a336.19 336.07 0 0 1 336.19 -336.07" fill="none"/>
<path transform="matrix(0,-1,-1,0,0,0)" d="m-563.15-691.27a207.68 207.76 0 0 1 207.68 -207.76" fill="none"/>
<path transform="scale(1,-1)" d="m562.84-434.76a128.43 128.39 0 0 1 128.43 -128.39" fill="none"/>
<path d="m562.84 434.76a79.325 79.297 0 0 1 79.325 -79.297" fill="none"/>
<path transform="scale(-1,1)" d="m-691.27 404.55a49.105 49.088 0 0 1 49.105 -49.088" fill="none"/>
<path transform="scale(-1)" d="m-691.27-404.55a30.219 30.208 0 0 1 30.219 -30.208" fill="none"/>
<path transform="scale(1,-1)" d="m642.17-415.88a18.886 18.88 0 0 1 18.886 -18.88" fill="none"/>
<path d="m642.17 415.88a11.332 11.328 0 0 1 11.332 -11.328" fill="none"/>
<path transform="scale(-1,1)" d="m-661.05 412.11a7.5543 7.5516 0 0 1 7.5543 -7.5516" fill="none"/>
<path transform="scale(-1)" d="m-661.05-412.11a3.7769 3.7756 0 0 1 3.7769 -3.7756" fill="none"/>
<path transform="scale(1,-1)" d="m653.51-412.1a3.7769 3.7756 0 0 1 3.7769 -3.7756" fill="none"/>
</g>
<g transform="matrix(0 .42012 -.42073 0 1347.9 272.03)" stroke-width="89.046">
<path d="m18.898 563.15a543.94 543.75 0 0 1 543.94 -543.75" fill="none"/>
<path transform="scale(-1,1)" d="m-899.03 355.47a336.19 336.07 0 0 1 336.19 -336.07" fill="none"/>
<path transform="matrix(0,-1,-1,0,0,0)" d="m-563.15-691.27a207.68 207.76 0 0 1 207.68 -207.76" fill="none"/>
<path transform="scale(1,-1)" d="m562.84-434.76a128.43 128.39 0 0 1 128.43 -128.39" fill="none"/>
<path d="m562.84 434.76a79.325 79.297 0 0 1 79.325 -79.297" fill="none"/>
<path transform="scale(-1,1)" d="m-691.27 404.55a49.105 49.088 0 0 1 49.105 -49.088" fill="none"/>
<path transform="scale(-1)" d="m-691.27-404.55a30.219 30.208 0 0 1 30.219 -30.208" fill="none"/>
<path transform="scale(1,-1)" d="m642.17-415.88a18.886 18.88 0 0 1 18.886 -18.88" fill="none"/>
<path d="m642.17 415.88a11.332 11.328 0 0 1 11.332 -11.328" fill="none"/>
<path transform="scale(-1,1)" d="m-661.05 412.11a7.5543 7.5516 0 0 1 7.5543 -7.5516" fill="none"/>
<path transform="scale(-1)" d="m-661.05-412.11a3.7769 3.7756 0 0 1 3.7769 -3.7756" fill="none"/>
<path transform="scale(1,-1)" d="m653.51-412.1a3.7769 3.7756 0 0 1 3.7769 -3.7756" fill="none"/>
</g>
</g>
<g transform="matrix(0 .74947 .74972 0 -2.2282 124.3)" stroke-width="49.943">
<path d="m18.898 563.15a543.94 543.75 0 0 1 543.94 -543.75" fill="none"/>
<path transform="scale(-1,1)" d="m-899.03 355.47a336.19 336.07 0 0 1 336.19 -336.07" fill="none"/>
<path transform="matrix(0,-1,-1,0,0,0)" d="m-563.15-691.27a207.68 207.76 0 0 1 207.68 -207.76" fill="none"/>
<path transform="scale(1,-1)" d="m562.84-434.76a128.43 128.39 0 0 1 128.43 -128.39" fill="none"/>
<path d="m562.84 434.76a79.325 79.297 0 0 1 79.325 -79.297" fill="none"/>
<path transform="scale(-1,1)" d="m-691.27 404.55a49.105 49.088 0 0 1 49.105 -49.088" fill="none"/>
<path transform="scale(-1)" d="m-691.27-404.55a30.219 30.208 0 0 1 30.219 -30.208" fill="none"/>
<path transform="scale(1,-1)" d="m642.17-415.88a18.886 18.88 0 0 1 18.886 -18.88" fill="none"/>
<path d="m642.17 415.88a11.332 11.328 0 0 1 11.332 -11.328" fill="none"/>
<path transform="scale(-1,1)" d="m-661.05 412.11a7.5543 7.5516 0 0 1 7.5543 -7.5516" fill="none"/>
<path transform="scale(-1)" d="m-661.05-412.11a3.7769 3.7756 0 0 1 3.7769 -3.7756" fill="none"/>
<path transform="scale(1,-1)" d="m653.51-412.1a3.7769 3.7756 0 0 1 3.7769 -3.7756" fill="none"/>
</g>
</g>
<g transform="matrix(.029551 -.012277 -.012256 -.029677 59.896 62.332)" stroke="#595959" stroke-width="37.437">
<g transform="translate(4.9234 -.50728)" stroke-width="37.437">
<g transform="matrix(-.22272 .22272 .22297 .22297 -347.89 234.99)" stroke="#595959" stroke-width="118.79">
<g transform="matrix(1.7834 0 0 -1.7814 -1584.4 1196.4)" stroke-width="66.647">
<path d="m488.35 24.876c24.327-3.5757 48.975-5.4122 74.488-5.4774" fill="none"/>
<path transform="scale(-1,1)" d="m-899.03 355.47a336.19 336.07 0 0 1 336.19 -336.07" fill="none"/>
<path transform="matrix(0,-1,-1,0,0,0)" d="m-563.15-691.27a207.68 207.76 0 0 1 207.68 -207.76" fill="none"/>
<path transform="scale(1,-1)" d="m562.84-434.76a128.43 128.39 0 0 1 128.43 -128.39" fill="none"/>
<path d="m562.84 434.76a79.325 79.297 0 0 1 79.325 -79.297" fill="none"/>
<path transform="scale(-1,1)" d="m-691.27 404.55a49.105 49.088 0 0 1 49.105 -49.088" fill="none"/>
<path transform="scale(-1)" d="m-691.27-404.55a30.219 30.208 0 0 1 30.219 -30.208" fill="none"/>
<path transform="scale(1,-1)" d="m642.17-415.88a18.886 18.88 0 0 1 18.886 -18.88" fill="none"/>
<path d="m642.17 415.88a11.332 11.328 0 0 1 11.332 -11.328" fill="none"/>
<path transform="scale(-1,1)" d="m-661.05 412.11a7.5543 7.5516 0 0 1 7.5543 -7.5516" fill="none"/>
<path transform="scale(-1)" d="m-661.05-412.11a3.7769 3.7756 0 0 1 3.7769 -3.7756" fill="none"/>
<path transform="scale(1,-1)" d="m653.51-412.1a3.7769 3.7756 0 0 1 3.7769 -3.7756" fill="none"/>
</g>
<path d="m18.898 563.15a543.94 543.75 0 0 1 543.94 -543.75" fill="none" stroke-width="118.79"/>
<path transform="scale(-1,1)" d="m-899.03 355.47a336.19 336.07 0 0 1 336.19 -336.07" fill="none"/>
<path transform="matrix(0,-1,-1,0,0,0)" d="m-563.15-691.27a207.68 207.76 0 0 1 207.68 -207.76" fill="none"/>
<path transform="scale(1,-1)" d="m562.84-434.76a128.43 128.39 0 0 1 128.43 -128.39" fill="none"/>
<path d="m562.84 434.76a79.325 79.297 0 0 1 79.325 -79.297" fill="none"/>
<path transform="scale(-1,1)" d="m-691.27 404.55a49.105 49.088 0 0 1 49.105 -49.088" fill="none"/>
<path transform="scale(-1)" d="m-691.27-404.55a30.219 30.208 0 0 1 30.219 -30.208" fill="none"/>
<path transform="scale(1,-1)" d="m642.17-415.88a18.886 18.88 0 0 1 18.886 -18.88" fill="none"/>
<path d="m642.17 415.88a11.332 11.328 0 0 1 11.332 -11.328" fill="none"/>
<path transform="scale(-1,1)" d="m-661.05 412.11a7.5543 7.5516 0 0 1 7.5543 -7.5516" fill="none"/>
<path transform="scale(-1)" d="m-661.05-412.11a3.7769 3.7756 0 0 1 3.7769 -3.7756" fill="none"/>
<path transform="scale(1,-1)" d="m653.51-412.1a3.7769 3.7756 0 0 1 3.7769 -3.7756" fill="none"/>
</g>
</g>
<g>
<g transform="rotate(180 491.41 78.931)" stroke-width="37.437">
<path d="m18.898 563.15a543.94 543.75 0 0 1 543.94 -543.75" fill="none"/>
<path transform="scale(-1,1)" d="m-899.03 355.47a336.19 336.07 0 0 1 336.19 -336.07" fill="none"/>
<path transform="matrix(0,-1,-1,0,0,0)" d="m-563.15-691.27a207.68 207.76 0 0 1 207.68 -207.76" fill="none"/>
<path transform="scale(1,-1)" d="m562.84-434.76a128.43 128.39 0 0 1 128.43 -128.39" fill="none"/>
<path d="m562.84 434.76a79.325 79.297 0 0 1 79.325 -79.297" fill="none"/>
<path transform="scale(-1,1)" d="m-691.27 404.55a49.105 49.088 0 0 1 49.105 -49.088" fill="none"/>
<path transform="scale(-1)" d="m-691.27-404.55a30.219 30.208 0 0 1 30.219 -30.208" fill="none"/>
<path transform="scale(1,-1)" d="m642.17-415.88a18.886 18.88 0 0 1 18.886 -18.88" fill="none"/>
<path d="m642.17 415.88a11.332 11.328 0 0 1 11.332 -11.328" fill="none"/>
<path transform="scale(-1,1)" d="m-661.05 412.11a7.5543 7.5516 0 0 1 7.5543 -7.5516" fill="none"/>
<path transform="scale(-1)" d="m-661.05-412.11a3.7769 3.7756 0 0 1 3.7769 -3.7756" fill="none"/>
<path transform="scale(1,-1)" d="m653.51-412.1a3.7769 3.7756 0 0 1 3.7769 -3.7756" fill="none"/>
</g>
<g transform="matrix(0 .74924 .7495 0 844.5 -393.62)" stroke-width="49.958">
<path d="m325.6 73.841c73.267-35.497 154.28-54.443 237.24-54.443" fill="none"/>
<path transform="scale(-1,1)" d="m-899.03 355.47a336.19 336.07 0 0 1 336.19 -336.07" fill="none"/>
<path transform="matrix(0,-1,-1,0,0,0)" d="m-563.15-691.27a207.68 207.76 0 0 1 207.68 -207.76" fill="none"/>
<path transform="scale(1,-1)" d="m562.84-434.76a128.43 128.39 0 0 1 128.43 -128.39" fill="none"/>
<path d="m562.84 434.76a79.325 79.297 0 0 1 79.325 -79.297" fill="none"/>
<path transform="scale(-1,1)" d="m-691.27 404.55a49.105 49.088 0 0 1 49.105 -49.088" fill="none"/>
<path transform="scale(-1)" d="m-691.27-404.55a30.219 30.208 0 0 1 30.219 -30.208" fill="none"/>
<path transform="scale(1,-1)" d="m642.17-415.88a18.886 18.88 0 0 1 18.886 -18.88" fill="none"/>
<path d="m642.17 415.88a11.332 11.328 0 0 1 11.332 -11.328" fill="none"/>
<path transform="scale(-1,1)" d="m-661.05 412.11a7.5543 7.5516 0 0 1 7.5543 -7.5516" fill="none"/>
<path transform="scale(-1)" d="m-661.05-412.11a3.7769 3.7756 0 0 1 3.7769 -3.7756" fill="none"/>
<path transform="scale(1,-1)" d="m653.51-412.1a3.7769 3.7756 0 0 1 3.7769 -3.7756" fill="none"/>
</g>
<g transform="matrix(0 .42012 -.42073 0 1347.9 272.03)" stroke-width="89.046">
<path d="m18.898 563.15a543.94 543.75 0 0 1 543.94 -543.75" fill="none"/>
<path transform="scale(-1,1)" d="m-899.03 355.47a336.19 336.07 0 0 1 336.19 -336.07" fill="none"/>
<path transform="matrix(0,-1,-1,0,0,0)" d="m-563.15-691.27a207.68 207.76 0 0 1 207.68 -207.76" fill="none"/>
<path transform="scale(1,-1)" d="m562.84-434.76a128.43 128.39 0 0 1 128.43 -128.39" fill="none"/>
<path d="m562.84 434.76a79.325 79.297 0 0 1 79.325 -79.297" fill="none"/>
<path transform="scale(-1,1)" d="m-691.27 404.55a49.105 49.088 0 0 1 49.105 -49.088" fill="none"/>
<path transform="scale(-1)" d="m-691.27-404.55a30.219 30.208 0 0 1 30.219 -30.208" fill="none"/>
<path transform="scale(1,-1)" d="m642.17-415.88a18.886 18.88 0 0 1 18.886 -18.88" fill="none"/>
<path d="m642.17 415.88a11.332 11.328 0 0 1 11.332 -11.328" fill="none"/>
<path transform="scale(-1,1)" d="m-661.05 412.11a7.5543 7.5516 0 0 1 7.5543 -7.5516" fill="none"/>
<path transform="scale(-1)" d="m-661.05-412.11a3.7769 3.7756 0 0 1 3.7769 -3.7756" fill="none"/>
<path transform="scale(1,-1)" d="m653.51-412.1a3.7769 3.7756 0 0 1 3.7769 -3.7756" fill="none"/>
</g>
</g>
<g transform="matrix(0 .74947 .74972 0 -2.2282 124.3)" stroke-width="49.943">
<path d="m18.898 563.15a543.94 543.75 0 0 1 543.94 -543.75" fill="none"/>
<path transform="scale(-1,1)" d="m-899.03 355.47a336.19 336.07 0 0 1 336.19 -336.07" fill="none"/>
<path transform="matrix(0,-1,-1,0,0,0)" d="m-563.15-691.27a207.68 207.76 0 0 1 207.68 -207.76" fill="none"/>
<path transform="scale(1,-1)" d="m562.84-434.76a128.43 128.39 0 0 1 128.43 -128.39" fill="none"/>
<path d="m562.84 434.76a79.325 79.297 0 0 1 79.325 -79.297" fill="none"/>
<path transform="scale(-1,1)" d="m-691.27 404.55a49.105 49.088 0 0 1 49.105 -49.088" fill="none"/>
<path transform="scale(-1)" d="m-691.27-404.55a30.219 30.208 0 0 1 30.219 -30.208" fill="none"/>
<path transform="scale(1,-1)" d="m642.17-415.88a18.886 18.88 0 0 1 18.886 -18.88" fill="none"/>
<path d="m642.17 415.88a11.332 11.328 0 0 1 11.332 -11.328" fill="none"/>
<path transform="scale(-1,1)" d="m-661.05 412.11a7.5543 7.5516 0 0 1 7.5543 -7.5516" fill="none"/>
<path transform="scale(-1)" d="m-661.05-412.11a3.7769 3.7756 0 0 1 3.7769 -3.7756" fill="none"/>
<path transform="scale(1,-1)" d="m653.51-412.1a3.7769 3.7756 0 0 1 3.7769 -3.7756" fill="none"/>
</g>
</g>
<g transform="matrix(-.080783 -.081042 .080783 -.081042 58.089 404.27)" stroke="#595959">
<g transform="translate(787.55 1284.9)" stroke-width="10.487">
<g transform="matrix(-.22272 .22272 .22297 .22297 -347.89 234.99)" stroke="#595959" stroke-width="33.276">
<g transform="matrix(1.7834 0 0 -1.7814 -1584.4 1196.4)" stroke-width="18.669">
<path d="m488.35 24.876c24.327-3.5757 48.975-5.4122 74.488-5.4774" fill="none"/>
<path transform="scale(-1,1)" d="m-899.03 355.47a336.19 336.07 0 0 1 336.19 -336.07" fill="none"/>
<path transform="matrix(0,-1,-1,0,0,0)" d="m-563.15-691.27a207.68 207.76 0 0 1 207.68 -207.76" fill="none"/>
<path transform="scale(1,-1)" d="m562.84-434.76a128.43 128.39 0 0 1 128.43 -128.39" fill="none"/>
<path d="m562.84 434.76a79.325 79.297 0 0 1 79.325 -79.297" fill="none"/>
<path transform="scale(-1,1)" d="m-691.27 404.55a49.105 49.088 0 0 1 49.105 -49.088" fill="none"/>
<path transform="scale(-1)" d="m-691.27-404.55a30.219 30.208 0 0 1 30.219 -30.208" fill="none"/>
<path transform="scale(1,-1)" d="m642.17-415.88a18.886 18.88 0 0 1 18.886 -18.88" fill="none"/>
<path d="m642.17 415.88a11.332 11.328 0 0 1 11.332 -11.328" fill="none"/>
<path transform="scale(-1,1)" d="m-661.05 412.11a7.5543 7.5516 0 0 1 7.5543 -7.5516" fill="none"/>
<path transform="scale(-1)" d="m-661.05-412.11a3.7769 3.7756 0 0 1 3.7769 -3.7756" fill="none"/>
<path transform="scale(1,-1)" d="m653.51-412.1a3.7769 3.7756 0 0 1 3.7769 -3.7756" fill="none"/>
</g>
<path d="m18.898 563.15a543.94 543.75 0 0 1 543.94 -543.75" fill="none" stroke-width="33.276"/>
<path transform="scale(-1,1)" d="m-899.03 355.47a336.19 336.07 0 0 1 336.19 -336.07" fill="none"/>
<path transform="matrix(0,-1,-1,0,0,0)" d="m-563.15-691.27a207.68 207.76 0 0 1 207.68 -207.76" fill="none"/>
<path transform="scale(1,-1)" d="m562.84-434.76a128.43 128.39 0 0 1 128.43 -128.39" fill="none"/>
<path d="m562.84 434.76a79.325 79.297 0 0 1 79.325 -79.297" fill="none"/>
<path transform="scale(-1,1)" d="m-691.27 404.55a49.105 49.088 0 0 1 49.105 -49.088" fill="none"/>
<path transform="scale(-1)" d="m-691.27-404.55a30.219 30.208 0 0 1 30.219 -30.208" fill="none"/>
<path transform="scale(1,-1)" d="m642.17-415.88a18.886 18.88 0 0 1 18.886 -18.88" fill="none"/>
<path d="m642.17 415.88a11.332 11.328 0 0 1 11.332 -11.328" fill="none"/>
<path transform="scale(-1,1)" d="m-661.05 412.11a7.5543 7.5516 0 0 1 7.5543 -7.5516" fill="none"/>
<path transform="scale(-1)" d="m-661.05-412.11a3.7769 3.7756 0 0 1 3.7769 -3.7756" fill="none"/>
<path transform="scale(1,-1)" d="m653.51-412.1a3.7769 3.7756 0 0 1 3.7769 -3.7756" fill="none"/>
</g>
</g>
<g transform="matrix(-.080214 .1938 -.1939 -.080377 488.51 1387.1)" stroke-width="49.981">
<g transform="translate(4.9234 -.50728)" stroke-width="49.981">
<g transform="matrix(-.22272 .22272 .22297 .22297 -347.89 234.99)" stroke="#595959" stroke-width="158.59">
<g transform="matrix(1.7834 0 0 -1.7814 -1584.4 1196.4)" stroke-width="88.977">
<path d="m488.35 24.876c24.327-3.5757 48.975-5.4122 74.488-5.4774" fill="none"/>
<path transform="scale(-1,1)" d="m-899.03 355.47a336.19 336.07 0 0 1 336.19 -336.07" fill="none"/>
<path transform="matrix(0,-1,-1,0,0,0)" d="m-563.15-691.27a207.68 207.76 0 0 1 207.68 -207.76" fill="none"/>
<path transform="scale(1,-1)" d="m562.84-434.76a128.43 128.39 0 0 1 128.43 -128.39" fill="none"/>
<path d="m562.84 434.76a79.325 79.297 0 0 1 79.325 -79.297" fill="none"/>
<path transform="scale(-1,1)" d="m-691.27 404.55a49.105 49.088 0 0 1 49.105 -49.088" fill="none"/>
<path transform="scale(-1)" d="m-691.27-404.55a30.219 30.208 0 0 1 30.219 -30.208" fill="none"/>
<path transform="scale(1,-1)" d="m642.17-415.88a18.886 18.88 0 0 1 18.886 -18.88" fill="none"/>
<path d="m642.17 415.88a11.332 11.328 0 0 1 11.332 -11.328" fill="none"/>
<path transform="scale(-1,1)" d="m-661.05 412.11a7.5543 7.5516 0 0 1 7.5543 -7.5516" fill="none"/>
<path transform="scale(-1)" d="m-661.05-412.11a3.7769 3.7756 0 0 1 3.7769 -3.7756" fill="none"/>
<path transform="scale(1,-1)" d="m653.51-412.1a3.7769 3.7756 0 0 1 3.7769 -3.7756" fill="none"/>
</g>
<path d="m18.898 563.15a543.94 543.75 0 0 1 543.94 -543.75" fill="none" stroke-width="158.59"/>
<path transform="scale(-1,1)" d="m-899.03 355.47a336.19 336.07 0 0 1 336.19 -336.07" fill="none"/>
<path transform="matrix(0,-1,-1,0,0,0)" d="m-563.15-691.27a207.68 207.76 0 0 1 207.68 -207.76" fill="none"/>
<path transform="scale(1,-1)" d="m562.84-434.76a128.43 128.39 0 0 1 128.43 -128.39" fill="none"/>
<path d="m562.84 434.76a79.325 79.297 0 0 1 79.325 -79.297" fill="none"/>
<path transform="scale(-1,1)" d="m-691.27 404.55a49.105 49.088 0 0 1 49.105 -49.088" fill="none"/>
<path transform="scale(-1)" d="m-691.27-404.55a30.219 30.208 0 0 1 30.219 -30.208" fill="none"/>
<path transform="scale(1,-1)" d="m642.17-415.88a18.886 18.88 0 0 1 18.886 -18.88" fill="none"/>
<path d="m642.17 415.88a11.332 11.328 0 0 1 11.332 -11.328" fill="none"/>
<path transform="scale(-1,1)" d="m-661.05 412.11a7.5543 7.5516 0 0 1 7.5543 -7.5516" fill="none"/>
<path transform="scale(-1)" d="m-661.05-412.11a3.7769 3.7756 0 0 1 3.7769 -3.7756" fill="none"/>
<path transform="scale(1,-1)" d="m653.51-412.1a3.7769 3.7756 0 0 1 3.7769 -3.7756" fill="none"/>
</g>
</g>
<g>
<g transform="rotate(180 491.41 78.931)" stroke-width="49.981">
<path d="m18.898 563.15a543.94 543.75 0 0 1 543.94 -543.75" fill="none"/>
<path transform="scale(-1,1)" d="m-899.03 355.47a336.19 336.07 0 0 1 336.19 -336.07" fill="none"/>
<path transform="matrix(0,-1,-1,0,0,0)" d="m-563.15-691.27a207.68 207.76 0 0 1 207.68 -207.76" fill="none"/>
<path transform="scale(1,-1)" d="m562.84-434.76a128.43 128.39 0 0 1 128.43 -128.39" fill="none"/>
<path d="m562.84 434.76a79.325 79.297 0 0 1 79.325 -79.297" fill="none"/>
<path transform="scale(-1,1)" d="m-691.27 404.55a49.105 49.088 0 0 1 49.105 -49.088" fill="none"/>
<path transform="scale(-1)" d="m-691.27-404.55a30.219 30.208 0 0 1 30.219 -30.208" fill="none"/>
<path transform="scale(1,-1)" d="m642.17-415.88a18.886 18.88 0 0 1 18.886 -18.88" fill="none"/>
<path d="m642.17 415.88a11.332 11.328 0 0 1 11.332 -11.328" fill="none"/>
<path transform="scale(-1,1)" d="m-661.05 412.11a7.5543 7.5516 0 0 1 7.5543 -7.5516" fill="none"/>
<path transform="scale(-1)" d="m-661.05-412.11a3.7769 3.7756 0 0 1 3.7769 -3.7756" fill="none"/>
<path transform="scale(1,-1)" d="m653.51-412.1a3.7769 3.7756 0 0 1 3.7769 -3.7756" fill="none"/>
</g>
<g transform="matrix(0 .74924 .7495 0 844.5 -393.62)" stroke-width="66.696">
<path d="m325.6 73.841c73.267-35.497 154.28-54.443 237.24-54.443" fill="none"/>
<path transform="scale(-1,1)" d="m-899.03 355.47a336.19 336.07 0 0 1 336.19 -336.07" fill="none"/>
<path transform="matrix(0,-1,-1,0,0,0)" d="m-563.15-691.27a207.68 207.76 0 0 1 207.68 -207.76" fill="none"/>
<path transform="scale(1,-1)" d="m562.84-434.76a128.43 128.39 0 0 1 128.43 -128.39" fill="none"/>
<path d="m562.84 434.76a79.325 79.297 0 0 1 79.325 -79.297" fill="none"/>
<path transform="scale(-1,1)" d="m-691.27 404.55a49.105 49.088 0 0 1 49.105 -49.088" fill="none"/>
<path transform="scale(-1)" d="m-691.27-404.55a30.219 30.208 0 0 1 30.219 -30.208" fill="none"/>
<path transform="scale(1,-1)" d="m642.17-415.88a18.886 18.88 0 0 1 18.886 -18.88" fill="none"/>
<path d="m642.17 415.88a11.332 11.328 0 0 1 11.332 -11.328" fill="none"/>
<path transform="scale(-1,1)" d="m-661.05 412.11a7.5543 7.5516 0 0 1 7.5543 -7.5516" fill="none"/>
<path transform="scale(-1)" d="m-661.05-412.11a3.7769 3.7756 0 0 1 3.7769 -3.7756" fill="none"/>
<path transform="scale(1,-1)" d="m653.51-412.1a3.7769 3.7756 0 0 1 3.7769 -3.7756" fill="none"/>
</g>
<g transform="matrix(0 .42012 -.42073 0 1347.9 272.03)" stroke-width="118.88">
<path d="m18.898 563.15a543.94 543.75 0 0 1 543.94 -543.75" fill="none"/>
<path transform="scale(-1,1)" d="m-899.03 355.47a336.19 336.07 0 0 1 336.19 -336.07" fill="none"/>
<path transform="matrix(0,-1,-1,0,0,0)" d="m-563.15-691.27a207.68 207.76 0 0 1 207.68 -207.76" fill="none"/>
<path transform="scale(1,-1)" d="m562.84-434.76a128.43 128.39 0 0 1 128.43 -128.39" fill="none"/>
<path d="m562.84 434.76a79.325 79.297 0 0 1 79.325 -79.297" fill="none"/>
<path transform="scale(-1,1)" d="m-691.27 404.55a49.105 49.088 0 0 1 49.105 -49.088" fill="none"/>
<path transform="scale(-1)" d="m-691.27-404.55a30.219 30.208 0 0 1 30.219 -30.208" fill="none"/>
<path transform="scale(1,-1)" d="m642.17-415.88a18.886 18.88 0 0 1 18.886 -18.88" fill="none"/>
<path d="m642.17 415.88a11.332 11.328 0 0 1 11.332 -11.328" fill="none"/>
<path transform="scale(-1,1)" d="m-661.05 412.11a7.5543 7.5516 0 0 1 7.5543 -7.5516" fill="none"/>
<path transform="scale(-1)" d="m-661.05-412.11a3.7769 3.7756 0 0 1 3.7769 -3.7756" fill="none"/>
<path transform="scale(1,-1)" d="m653.51-412.1a3.7769 3.7756 0 0 1 3.7769 -3.7756" fill="none"/>
</g>
</g>
<g transform="matrix(0 .74947 .74972 0 -2.2282 124.3)" stroke-width="66.677">
<path d="m18.898 563.15a543.94 543.75 0 0 1 543.94 -543.75" fill="none"/>
<path transform="scale(-1,1)" d="m-899.03 355.47a336.19 336.07 0 0 1 336.19 -336.07" fill="none"/>
<path transform="matrix(0,-1,-1,0,0,0)" d="m-563.15-691.27a207.68 207.76 0 0 1 207.68 -207.76" fill="none"/>
<path transform="scale(1,-1)" d="m562.84-434.76a128.43 128.39 0 0 1 128.43 -128.39" fill="none"/>
<path d="m562.84 434.76a79.325 79.297 0 0 1 79.325 -79.297" fill="none"/>
<path transform="scale(-1,1)" d="m-691.27 404.55a49.105 49.088 0 0 1 49.105 -49.088" fill="none"/>
<path transform="scale(-1)" d="m-691.27-404.55a30.219 30.208 0 0 1 30.219 -30.208" fill="none"/>
<path transform="scale(1,-1)" d="m642.17-415.88a18.886 18.88 0 0 1 18.886 -18.88" fill="none"/>
<path d="m642.17 415.88a11.332 11.328 0 0 1 11.332 -11.328" fill="none"/>
<path transform="scale(-1,1)" d="m-661.05 412.11a7.5543 7.5516 0 0 1 7.5543 -7.5516" fill="none"/>
<path transform="scale(-1)" d="m-661.05-412.11a3.7769 3.7756 0 0 1 3.7769 -3.7756" fill="none"/>
<path transform="scale(1,-1)" d="m653.51-412.1a3.7769 3.7756 0 0 1 3.7769 -3.7756" fill="none"/>
</g>
</g>
</g>
<metadata>
<rdf:RDF>
<cc:Work rdf:about="">
<dc:format>image/svg+xml</dc:format>
<dc:type rdf:resource="http://purl.org/dc/dcmitype/StillImage"/>
<dc:title/>
</cc:Work>
</rdf:RDF>
</metadata>
<g transform="matrix(.012061 -.014686 .014757 .012077 99.073 219.9)" stroke="#595959" stroke-width="63.037">
<g transform="translate(4.9234 -.50728)" stroke-width="63.037">
<g transform="matrix(-.22272 .22272 .22297 .22297 -347.89 234.99)" stroke="#595959" stroke-width="200.02">
<g transform="matrix(1.7834 0 0 -1.7814 -1584.4 1196.4)" stroke-width="112.22">
<path d="m488.35 24.876c24.327-3.5757 48.975-5.4122 74.488-5.4774" fill="none"/>
<path transform="scale(-1,1)" d="m-899.03 355.47a336.19 336.07 0 0 1 336.19 -336.07" fill="none"/>
<path transform="matrix(0,-1,-1,0,0,0)" d="m-563.15-691.27a207.68 207.76 0 0 1 207.68 -207.76" fill="none"/>
<path transform="scale(1,-1)" d="m562.84-434.76a128.43 128.39 0 0 1 128.43 -128.39" fill="none"/>
<path d="m562.84 434.76a79.325 79.297 0 0 1 79.325 -79.297" fill="none"/>
<path transform="scale(-1,1)" d="m-691.27 404.55a49.105 49.088 0 0 1 49.105 -49.088" fill="none"/>
<path transform="scale(-1)" d="m-691.27-404.55a30.219 30.208 0 0 1 30.219 -30.208" fill="none"/>
<path transform="scale(1,-1)" d="m642.17-415.88a18.886 18.88 0 0 1 18.886 -18.88" fill="none"/>
<path d="m642.17 415.88a11.332 11.328 0 0 1 11.332 -11.328" fill="none"/>
<path transform="scale(-1,1)" d="m-661.05 412.11a7.5543 7.5516 0 0 1 7.5543 -7.5516" fill="none"/>
<path transform="scale(-1)" d="m-661.05-412.11a3.7769 3.7756 0 0 1 3.7769 -3.7756" fill="none"/>
<path transform="scale(1,-1)" d="m653.51-412.1a3.7769 3.7756 0 0 1 3.7769 -3.7756" fill="none"/>
</g>
<path d="m18.898 563.15a543.94 543.75 0 0 1 543.94 -543.75" fill="none" stroke-width="200.02"/>
<path transform="scale(-1,1)" d="m-899.03 355.47a336.19 336.07 0 0 1 336.19 -336.07" fill="none"/>
<path transform="matrix(0,-1,-1,0,0,0)" d="m-563.15-691.27a207.68 207.76 0 0 1 207.68 -207.76" fill="none"/>
<path transform="scale(1,-1)" d="m562.84-434.76a128.43 128.39 0 0 1 128.43 -128.39" fill="none"/>
<path d="m562.84 434.76a79.325 79.297 0 0 1 79.325 -79.297" fill="none"/>
<path transform="scale(-1,1)" d="m-691.27 404.55a49.105 49.088 0 0 1 49.105 -49.088" fill="none"/>
<path transform="scale(-1)" d="m-691.27-404.55a30.219 30.208 0 0 1 30.219 -30.208" fill="none"/>
<path transform="scale(1,-1)" d="m642.17-415.88a18.886 18.88 0 0 1 18.886 -18.88" fill="none"/>
<path d="m642.17 415.88a11.332 11.328 0 0 1 11.332 -11.328" fill="none"/>
<path transform="scale(-1,1)" d="m-661.05 412.11a7.5543 7.5516 0 0 1 7.5543 -7.5516" fill="none"/>
<path transform="scale(-1)" d="m-661.05-412.11a3.7769 3.7756 0 0 1 3.7769 -3.7756" fill="none"/>
<path transform="scale(1,-1)" d="m653.51-412.1a3.7769 3.7756 0 0 1 3.7769 -3.7756" fill="none"/>
</g>
</g>
<g>
<g transform="rotate(180 491.41 78.931)" stroke-width="63.037">
<path d="m18.898 563.15a543.94 543.75 0 0 1 543.94 -543.75" fill="none"/>
<path transform="scale(-1,1)" d="m-899.03 355.47a336.19 336.07 0 0 1 336.19 -336.07" fill="none"/>
<path transform="matrix(0,-1,-1,0,0,0)" d="m-563.15-691.27a207.68 207.76 0 0 1 207.68 -207.76" fill="none"/>
<path transform="scale(1,-1)" d="m562.84-434.76a128.43 128.39 0 0 1 128.43 -128.39" fill="none"/>
<path d="m562.84 434.76a79.325 79.297 0 0 1 79.325 -79.297" fill="none"/>
<path transform="scale(-1,1)" d="m-691.27 404.55a49.105 49.088 0 0 1 49.105 -49.088" fill="none"/>
<path transform="scale(-1)" d="m-691.27-404.55a30.219 30.208 0 0 1 30.219 -30.208" fill="none"/>
<path transform="scale(1,-1)" d="m642.17-415.88a18.886 18.88 0 0 1 18.886 -18.88" fill="none"/>
<path d="m642.17 415.88a11.332 11.328 0 0 1 11.332 -11.328" fill="none"/>
<path transform="scale(-1,1)" d="m-661.05 412.11a7.5543 7.5516 0 0 1 7.5543 -7.5516" fill="none"/>
<path transform="scale(-1)" d="m-661.05-412.11a3.7769 3.7756 0 0 1 3.7769 -3.7756" fill="none"/>
<path transform="scale(1,-1)" d="m653.51-412.1a3.7769 3.7756 0 0 1 3.7769 -3.7756" fill="none"/>
</g>
<g transform="matrix(0 .74924 .7495 0 844.5 -393.62)" stroke-width="84.119">
<path d="m325.6 73.841c73.267-35.497 154.28-54.443 237.24-54.443" fill="none"/>
<path transform="scale(-1,1)" d="m-899.03 355.47a336.19 336.07 0 0 1 336.19 -336.07" fill="none"/>
<path transform="matrix(0,-1,-1,0,0,0)" d="m-563.15-691.27a207.68 207.76 0 0 1 207.68 -207.76" fill="none"/>
<path transform="scale(1,-1)" d="m562.84-434.76a128.43 128.39 0 0 1 128.43 -128.39" fill="none"/>
<path d="m562.84 434.76a79.325 79.297 0 0 1 79.325 -79.297" fill="none"/>
<path transform="scale(-1,1)" d="m-691.27 404.55a49.105 49.088 0 0 1 49.105 -49.088" fill="none"/>
<path transform="scale(-1)" d="m-691.27-404.55a30.219 30.208 0 0 1 30.219 -30.208" fill="none"/>
<path transform="scale(1,-1)" d="m642.17-415.88a18.886 18.88 0 0 1 18.886 -18.88" fill="none"/>
<path d="m642.17 415.88a11.332 11.328 0 0 1 11.332 -11.328" fill="none"/>
<path transform="scale(-1,1)" d="m-661.05 412.11a7.5543 7.5516 0 0 1 7.5543 -7.5516" fill="none"/>
<path transform="scale(-1)" d="m-661.05-412.11a3.7769 3.7756 0 0 1 3.7769 -3.7756" fill="none"/>
<path transform="scale(1,-1)" d="m653.51-412.1a3.7769 3.7756 0 0 1 3.7769 -3.7756" fill="none"/>
</g>
<g transform="matrix(0 .42012 -.42073 0 1347.9 272.03)" stroke-width="149.94">
<path d="m18.898 563.15a543.94 543.75 0 0 1 543.94 -543.75" fill="none"/>
<path transform="scale(-1,1)" d="m-899.03 355.47a336.19 336.07 0 0 1 336.19 -336.07" fill="none"/>
<path transform="matrix(0,-1,-1,0,0,0)" d="m-563.15-691.27a207.68 207.76 0 0 1 207.68 -207.76" fill="none"/>
<path transform="scale(1,-1)" d="m562.84-434.76a128.43 128.39 0 0 1 128.43 -128.39" fill="none"/>
<path d="m562.84 434.76a79.325 79.297 0 0 1 79.325 -79.297" fill="none"/>
<path transform="scale(-1,1)" d="m-691.27 404.55a49.105 49.088 0 0 1 49.105 -49.088" fill="none"/>
<path transform="scale(-1)" d="m-691.27-404.55a30.219 30.208 0 0 1 30.219 -30.208" fill="none"/>
<path transform="scale(1,-1)" d="m642.17-415.88a18.886 18.88 0 0 1 18.886 -18.88" fill="none"/>
<path d="m642.17 415.88a11.332 11.328 0 0 1 11.332 -11.328" fill="none"/>
<path transform="scale(-1,1)" d="m-661.05 412.11a7.5543 7.5516 0 0 1 7.5543 -7.5516" fill="none"/>
<path transform="scale(-1)" d="m-661.05-412.11a3.7769 3.7756 0 0 1 3.7769 -3.7756" fill="none"/>
<path transform="scale(1,-1)" d="m653.51-412.1a3.7769 3.7756 0 0 1 3.7769 -3.7756" fill="none"/>
</g>
</g>
<g transform="matrix(0 .74947 .74972 0 -2.2282 124.3)" stroke-width="84.094">
<path d="m18.898 563.15a543.94 543.75 0 0 1 543.94 -543.75" fill="none"/>
<path transform="scale(-1,1)" d="m-899.03 355.47a336.19 336.07 0 0 1 336.19 -336.07" fill="none"/>
<path transform="matrix(0,-1,-1,0,0,0)" d="m-563.15-691.27a207.68 207.76 0 0 1 207.68 -207.76" fill="none"/>
<path transform="scale(1,-1)" d="m562.84-434.76a128.43 128.39 0 0 1 128.43 -128.39" fill="none"/>
<path d="m562.84 434.76a79.325 79.297 0 0 1 79.325 -79.297" fill="none"/>
<path transform="scale(-1,1)" d="m-691.27 404.55a49.105 49.088 0 0 1 49.105 -49.088" fill="none"/>
<path transform="scale(-1)" d="m-691.27-404.55a30.219 30.208 0 0 1 30.219 -30.208" fill="none"/>
<path transform="scale(1,-1)" d="m642.17-415.88a18.886 18.88 0 0 1 18.886 -18.88" fill="none"/>
<path d="m642.17 415.88a11.332 11.328 0 0 1 11.332 -11.328" fill="none"/>
<path transform="scale(-1,1)" d="m-661.05 412.11a7.5543 7.5516 0 0 1 7.5543 -7.5516" fill="none"/>
<path transform="scale(-1)" d="m-661.05-412.11a3.7769 3.7756 0 0 1 3.7769 -3.7756" fill="none"/>
<path transform="scale(1,-1)" d="m653.51-412.1a3.7769 3.7756 0 0 1 3.7769 -3.7756" fill="none"/>
</g>
</g>
</svg>
